<svg width="144" height="114" viewBox="0 0 144 114" fill="none" xmlns="http://www.w3.org/2000/svg">
<g clip-path="url(#clip0_154_148)">
<path d="M93.6336 52.4861C94.8646 51.1056 94.8089 49.0056 93.5065 47.6923L90.0473 44.2331C94.6794 38.1976 94.1277 29.6652 88.757 24.2763L73.8167 9.33368L74.1177 9.03268C76.184 6.96638 76.184 3.61602 74.1177 1.54972C72.0514 -0.516575 68.7011 -0.516575 66.6348 1.54972L60.5005 7.68402L53.8832 1.06673C52.4612 -0.355284 50.1556 -0.355284 48.7336 1.06673C47.3116 2.48874 47.3116 4.79435 48.7336 6.21636L55.3509 12.8337L48.8339 19.3506L42.2166 12.7333C40.7946 11.3113 38.489 11.3113 37.067 12.7333C35.645 14.1553 35.645 16.4609 37.067 17.883L43.6843 24.5003L37.55 30.6345C35.4837 32.7008 35.4837 36.0512 37.55 38.1175C39.6163 40.1838 42.9666 40.1838 45.0329 38.1175L45.3339 37.8165L60.2765 52.7591C65.6609 58.1397 74.201 58.692 80.2334 54.0494L83.6925 57.5085C85.0011 58.8219 87.11 58.8779 88.4863 57.6357L100.851 70H106V64.8503L93.6336 52.4861ZM50.3832 4.56671C49.8722 4.05571 49.8722 3.22738 50.3832 2.71638C50.8942 2.20539 51.7225 2.20539 52.2335 2.71638L58.8508 9.33368L57.0005 11.184L50.3832 4.56671ZM38.7166 16.2333C38.2056 15.7223 38.2056 14.894 38.7166 14.383C39.2276 13.872 40.056 13.872 40.5669 14.383L47.1842 21.0003L45.3339 22.8506L38.7166 16.2333ZM43.6843 36.1668L43.3833 36.4678C42.2098 37.6049 40.3367 37.5754 39.1996 36.4019C38.0878 35.2545 38.0878 33.4316 39.1996 32.2842L45.3339 26.1499L50.4836 21.0003L57.0005 14.4833L62.1501 9.33368L68.2844 3.19938C69.458 2.06233 71.331 2.09178 72.4681 3.2653C73.5799 4.41271 73.5799 6.23561 72.4681 7.38302L72.1671 7.68402L43.6843 36.1668ZM80.0759 51.1094C75.0607 56.1132 66.9413 56.1132 61.9262 51.1094L46.9836 36.1668L72.1671 10.9833L87.1097 25.9259C92.1135 30.9411 92.1135 39.0603 87.1097 44.0756L80.0759 51.1094ZM86.9918 55.8589C86.5362 56.3143 85.7977 56.3143 85.3422 55.8589L81.9834 52.5001L88.5003 45.9831L91.8591 49.3419C92.3146 49.7975 92.3146 50.536 91.8591 50.9916L86.9918 55.8589ZM103.667 67.6667H101.817L90.15 56.0001L92.0003 54.1497L103.667 65.8163V67.6667Z" fill="white"/>
<path d="M79.146 42.9507L75.646 24.2841C75.5263 23.6511 74.916 23.2349 74.2829 23.3546C74.0529 23.3981 73.8412 23.5098 73.6755 23.6751L70.2595 27.0911L68.583 22.9005C68.4372 22.5363 68.1181 22.2698 67.7337 22.1912C67.3496 22.1096 66.9505 22.2292 66.6744 22.5085L60.8411 28.3418C60.5111 28.6715 60.4093 29.1662 60.5821 29.5994L65.2487 41.266C65.4878 41.8644 66.1665 42.1558 66.765 41.9168C66.912 41.858 67.0455 41.77 67.1574 41.658L71.0004 37.8162L77.1755 43.9914C77.6318 44.4462 78.3704 44.4452 78.8254 43.9889C79.0967 43.7168 79.2166 43.3284 79.146 42.9507ZM71.8252 35.3417C71.3696 34.8863 70.6311 34.8863 70.1755 35.3417L66.7596 38.7577L63.0367 29.4489L67.0746 25.41L68.751 29.6006C68.9901 30.199 69.6688 30.4903 70.2673 30.2513C70.4143 30.1925 70.5478 30.1046 70.6597 29.9926L73.7618 26.8905L76.1605 39.6759L71.8252 35.3417Z" fill="white"/>
</g>
<path d="M60.5127 109H52.0664V107.743L55.4502 104.342C56.4814 103.299 57.1611 102.555 57.4893 102.109C57.8174 101.664 58.0635 101.23 58.2275 100.809C58.3916 100.387 58.4736 99.9326 58.4736 99.4463C58.4736 98.7607 58.2656 98.2188 57.8496 97.8203C57.4336 97.416 56.8564 97.2139 56.1182 97.2139C55.585 97.2139 55.0781 97.3018 54.5977 97.4775C54.123 97.6533 53.5928 97.9727 53.0068 98.4355L52.2334 97.4424C53.417 96.458 54.7061 95.9658 56.1006 95.9658C57.3076 95.9658 58.2539 96.2764 58.9395 96.8975C59.625 97.5127 59.9678 98.3418 59.9678 99.3848C59.9678 100.199 59.7393 101.005 59.2822 101.802C58.8252 102.599 57.9697 103.606 56.7158 104.825L53.9033 107.576V107.646H60.5127V109ZM70.3301 99.1738C70.3301 99.9941 70.0986 100.665 69.6357 101.187C69.1787 101.708 68.5283 102.057 67.6846 102.232V102.303C68.7158 102.432 69.4805 102.76 69.9785 103.287C70.4766 103.814 70.7256 104.506 70.7256 105.361C70.7256 106.586 70.3008 107.529 69.4512 108.191C68.6016 108.848 67.3945 109.176 65.8301 109.176C65.1504 109.176 64.5264 109.123 63.958 109.018C63.3955 108.918 62.8477 108.739 62.3145 108.481V107.093C62.8711 107.368 63.4629 107.579 64.0898 107.726C64.7227 107.866 65.3203 107.937 65.8828 107.937C68.1035 107.937 69.2139 107.066 69.2139 105.326C69.2139 103.768 67.9893 102.988 65.54 102.988H64.2744V101.731H65.5576C66.5596 101.731 67.3535 101.512 67.9395 101.072C68.5254 100.627 68.8184 100.012 68.8184 99.2266C68.8184 98.5996 68.6016 98.1074 68.168 97.75C67.7402 97.3926 67.1572 97.2139 66.4189 97.2139C65.8564 97.2139 65.3262 97.29 64.8281 97.4424C64.3301 97.5947 63.7617 97.876 63.123 98.2861L62.3848 97.3018C62.9121 96.8857 63.5186 96.5605 64.2041 96.3262C64.8955 96.0859 65.6221 95.9658 66.3838 95.9658C67.6318 95.9658 68.6016 96.2529 69.293 96.8271C69.9844 97.3955 70.3301 98.1777 70.3301 99.1738ZM81.1846 102.558C81.1846 104.778 80.833 106.437 80.1299 107.532C79.4326 108.628 78.3633 109.176 76.9219 109.176C75.5391 109.176 74.4873 108.616 73.7666 107.497C73.0459 106.372 72.6855 104.726 72.6855 102.558C72.6855 100.319 73.0342 98.6582 73.7314 97.5742C74.4287 96.4902 75.4922 95.9482 76.9219 95.9482C78.3164 95.9482 79.374 96.5137 80.0947 97.6445C80.8213 98.7754 81.1846 100.413 81.1846 102.558ZM74.1621 102.558C74.1621 104.427 74.3818 105.789 74.8213 106.645C75.2607 107.494 75.9609 107.919 76.9219 107.919C77.8945 107.919 78.5977 107.488 79.0312 106.627C79.4707 105.76 79.6904 104.403 79.6904 102.558C79.6904 100.712 79.4707 99.3613 79.0312 98.5059C78.5977 97.6445 77.8945 97.2139 76.9219 97.2139C75.9609 97.2139 75.2607 97.6387 74.8213 98.4883C74.3818 99.332 74.1621 100.688 74.1621 102.558ZM91.1953 96.1504H92.8037L88.1719 109H86.6953L82.0898 96.1504H83.6719L86.625 104.465C86.9648 105.42 87.2344 106.349 87.4336 107.251C87.6445 106.302 87.9199 105.355 88.2598 104.412L91.1953 96.1504Z" fill="white"/>
<defs>
<clipPath id="clip0_154_148">
<rect width="70" height="70" fill="white" transform="translate(36)"/>
</clipPath>
</defs>
</svg>
