<svg width="132" height="118" viewBox="0 0 132 118" fill="none" xmlns="http://www.w3.org/2000/svg">
<path d="M7.5354 99.3018C6.12329 99.3018 5.00708 99.7734 4.18677 100.717C3.37231 101.654 2.96509 102.94 2.96509 104.575C2.96509 106.257 3.35767 107.558 4.14282 108.478C4.93384 109.392 6.05884 109.849 7.51782 109.849C8.41431 109.849 9.43677 109.688 10.5852 109.365V110.675C9.69458 111.009 8.59595 111.176 7.28931 111.176C5.39673 111.176 3.93481 110.602 2.90356 109.453C1.87817 108.305 1.36548 106.673 1.36548 104.558C1.36548 103.233 1.61157 102.073 2.10376 101.077C2.60181 100.081 3.31665 99.3135 4.24829 98.7744C5.18579 98.2354 6.28735 97.9658 7.55298 97.9658C8.90063 97.9658 10.0784 98.2119 11.0862 98.7041L10.4534 99.9873C9.48071 99.5303 8.50806 99.3018 7.5354 99.3018ZM21.4836 106.175C21.4836 107.745 21.0881 108.973 20.2971 109.857C19.5061 110.736 18.4133 111.176 17.0188 111.176C16.1575 111.176 15.3928 110.974 14.7249 110.569C14.0569 110.165 13.5413 109.585 13.178 108.829C12.8147 108.073 12.6331 107.188 12.6331 106.175C12.6331 104.604 13.0256 103.383 13.8108 102.51C14.5959 101.631 15.6858 101.191 17.0803 101.191C18.428 101.191 19.4973 101.64 20.2883 102.536C21.0852 103.433 21.4836 104.646 21.4836 106.175ZM14.1448 106.175C14.1448 107.405 14.3909 108.343 14.8831 108.987C15.3752 109.632 16.0989 109.954 17.054 109.954C18.009 109.954 18.7327 109.635 19.2249 108.996C19.7229 108.352 19.9719 107.411 19.9719 106.175C19.9719 104.95 19.7229 104.021 19.2249 103.389C18.7327 102.75 18.0032 102.431 17.0364 102.431C16.0813 102.431 15.3606 102.744 14.8743 103.371C14.3879 103.998 14.1448 104.933 14.1448 106.175ZM34.4915 102.501H32.0393V111H30.5803V102.501H28.8577V101.842L30.5803 101.314V100.778C30.5803 98.4111 31.6145 97.2275 33.6829 97.2275C34.1926 97.2275 34.7903 97.3301 35.4758 97.5352L35.0979 98.7041C34.5354 98.5225 34.0549 98.4316 33.6565 98.4316C33.1057 98.4316 32.6985 98.6162 32.4348 98.9854C32.1711 99.3486 32.0393 99.9346 32.0393 100.743V101.367H34.4915V102.501ZM28.3918 102.501H25.9397V111H24.4807V102.501H22.7581V101.842L24.4807 101.314V100.778C24.4807 98.4111 25.5149 97.2275 27.5833 97.2275C28.093 97.2275 28.6907 97.3301 29.3762 97.5352L28.9983 98.7041C28.4358 98.5225 27.9553 98.4316 27.5569 98.4316C27.0061 98.4316 26.5989 98.6162 26.3352 98.9854C26.0715 99.3486 25.9397 99.9346 25.9397 100.743V101.367H28.3918V102.501ZM40.3362 111.176C38.9124 111.176 37.7874 110.742 36.9612 109.875C36.1409 109.008 35.7307 107.804 35.7307 106.263C35.7307 104.71 36.1116 103.477 36.8733 102.562C37.6409 101.648 38.6692 101.191 39.9583 101.191C41.1653 101.191 42.1204 101.59 42.8235 102.387C43.5266 103.178 43.8782 104.224 43.8782 105.524V106.447H37.2424C37.2717 107.578 37.5559 108.437 38.095 109.022C38.6399 109.608 39.4045 109.901 40.3889 109.901C41.426 109.901 42.4514 109.685 43.4651 109.251V110.552C42.9495 110.774 42.4602 110.933 41.9973 111.026C41.5403 111.126 40.9866 111.176 40.3362 111.176ZM39.9407 102.413C39.1672 102.413 38.5491 102.665 38.0862 103.169C37.6292 103.673 37.3596 104.37 37.2776 105.261H42.3137C42.3137 104.341 42.1086 103.638 41.6985 103.151C41.2883 102.659 40.7024 102.413 39.9407 102.413ZM50.4436 111.176C49.0198 111.176 47.8948 110.742 47.0686 109.875C46.2483 109.008 45.8381 107.804 45.8381 106.263C45.8381 104.71 46.219 103.477 46.9807 102.562C47.7483 101.648 48.7766 101.191 50.0657 101.191C51.2727 101.191 52.2278 101.59 52.9309 102.387C53.634 103.178 53.9856 104.224 53.9856 105.524V106.447H47.3499C47.3792 107.578 47.6633 108.437 48.2024 109.022C48.7473 109.608 49.512 109.901 50.4963 109.901C51.5334 109.901 52.5588 109.685 53.5725 109.251V110.552C53.0569 110.774 52.5676 110.933 52.1047 111.026C51.6477 111.126 51.094 111.176 50.4436 111.176ZM50.0481 102.413C49.2747 102.413 48.6565 102.665 48.1936 103.169C47.7366 103.673 47.467 104.37 47.385 105.261H52.4211C52.4211 104.341 52.2161 103.638 51.8059 103.151C51.3958 102.659 50.8098 102.413 50.0481 102.413ZM73.4358 111V104.733C73.4358 103.966 73.2717 103.392 72.9436 103.011C72.6155 102.624 72.1057 102.431 71.4143 102.431C70.5061 102.431 69.8352 102.691 69.4016 103.213C68.968 103.734 68.7512 104.537 68.7512 105.621V111H67.2922V104.733C67.2922 103.966 67.1282 103.392 66.8 103.011C66.4719 102.624 65.9592 102.431 65.262 102.431C64.3479 102.431 63.677 102.706 63.2493 103.257C62.8274 103.802 62.6165 104.698 62.6165 105.946V111H61.1575V101.367H62.344L62.5813 102.686H62.6516C62.927 102.217 63.3137 101.851 63.8118 101.587C64.3157 101.323 64.8782 101.191 65.4993 101.191C67.0051 101.191 67.9895 101.736 68.4524 102.826H68.5227C68.8098 102.322 69.2258 101.924 69.7708 101.631C70.3157 101.338 70.9368 101.191 71.634 101.191C72.7239 101.191 73.5383 101.473 74.0774 102.035C74.6223 102.592 74.8948 103.485 74.8948 104.716V111H73.4358ZM83.8333 111L83.5432 109.629H83.4729C82.9924 110.232 82.512 110.643 82.0315 110.859C81.5569 111.07 80.9622 111.176 80.2473 111.176C79.2922 111.176 78.5422 110.93 77.9973 110.438C77.4583 109.945 77.1887 109.245 77.1887 108.337C77.1887 106.392 78.7444 105.372 81.8557 105.278L83.4905 105.226V104.628C83.4905 103.872 83.3264 103.315 82.9983 102.958C82.676 102.595 82.1575 102.413 81.4426 102.413C80.6399 102.413 79.7317 102.659 78.718 103.151L78.2698 102.035C78.7444 101.777 79.2629 101.575 79.8254 101.429C80.3938 101.282 80.9622 101.209 81.5305 101.209C82.679 101.209 83.5286 101.464 84.0793 101.974C84.636 102.483 84.9143 103.301 84.9143 104.426V111H83.8333ZM80.5374 109.972C81.4456 109.972 82.1575 109.723 82.6731 109.225C83.1946 108.727 83.4553 108.029 83.4553 107.133V106.263L81.9963 106.324C80.8362 106.365 79.9983 106.547 79.4827 106.869C78.9729 107.186 78.718 107.681 78.718 108.354C78.718 108.882 78.8762 109.283 79.1926 109.559C79.5149 109.834 79.9631 109.972 80.5374 109.972ZM91.7786 111.176C90.384 111.176 89.303 110.748 88.5354 109.893C87.7737 109.031 87.3928 107.815 87.3928 106.245C87.3928 104.634 87.7795 103.389 88.553 102.51C89.3323 101.631 90.4397 101.191 91.8752 101.191C92.3381 101.191 92.801 101.241 93.2639 101.341C93.7268 101.44 94.0901 101.558 94.3538 101.692L93.9055 102.932C93.5833 102.803 93.2317 102.697 92.8508 102.615C92.47 102.527 92.1331 102.483 91.8401 102.483C89.8831 102.483 88.9045 103.731 88.9045 106.228C88.9045 107.411 89.1418 108.319 89.6165 108.952C90.0969 109.585 90.8059 109.901 91.7434 109.901C92.5461 109.901 93.3694 109.729 94.2131 109.383V110.675C93.5686 111.009 92.7571 111.176 91.7786 111.176ZM103.099 111V104.769C103.099 103.983 102.92 103.397 102.563 103.011C102.205 102.624 101.646 102.431 100.884 102.431C99.8704 102.431 99.1292 102.706 98.6604 103.257C98.1975 103.808 97.9661 104.71 97.9661 105.964V111H96.5071V97.3242H97.9661V101.464C97.9661 101.962 97.9426 102.375 97.8958 102.703H97.9836C98.2708 102.24 98.678 101.877 99.2053 101.613C99.7385 101.344 100.345 101.209 101.025 101.209C102.202 101.209 103.084 101.49 103.67 102.053C104.262 102.609 104.558 103.497 104.558 104.716V111H103.099ZM109.023 111H107.564V101.367H109.023V111ZM107.441 98.7568C107.441 98.4229 107.523 98.1797 107.687 98.0273C107.851 97.8691 108.056 97.79 108.302 97.79C108.536 97.79 108.739 97.8691 108.908 98.0273C109.078 98.1855 109.163 98.4287 109.163 98.7568C109.163 99.085 109.078 99.3311 108.908 99.4951C108.739 99.6533 108.536 99.7324 108.302 99.7324C108.056 99.7324 107.851 99.6533 107.687 99.4951C107.523 99.3311 107.441 99.085 107.441 98.7568ZM118.708 111V104.769C118.708 103.983 118.53 103.397 118.172 103.011C117.815 102.624 117.255 102.431 116.493 102.431C115.486 102.431 114.747 102.703 114.279 103.248C113.81 103.793 113.575 104.692 113.575 105.946V111H112.116V101.367H113.303L113.54 102.686H113.611C113.909 102.211 114.328 101.845 114.867 101.587C115.406 101.323 116.007 101.191 116.669 101.191C117.829 101.191 118.702 101.473 119.288 102.035C119.874 102.592 120.167 103.485 120.167 104.716V111H118.708ZM127.242 111.176C125.819 111.176 124.694 110.742 123.867 109.875C123.047 109.008 122.637 107.804 122.637 106.263C122.637 104.71 123.018 103.477 123.78 102.562C124.547 101.648 125.575 101.191 126.865 101.191C128.072 101.191 129.027 101.59 129.73 102.387C130.433 103.178 130.784 104.224 130.784 105.524V106.447H124.149C124.178 107.578 124.462 108.437 125.001 109.022C125.546 109.608 126.311 109.901 127.295 109.901C128.332 109.901 129.358 109.685 130.371 109.251V110.552C129.856 110.774 129.366 110.933 128.904 111.026C128.447 111.126 127.893 111.176 127.242 111.176ZM126.847 102.413C126.073 102.413 125.455 102.665 124.992 103.169C124.535 103.673 124.266 104.37 124.184 105.261H129.22C129.22 104.341 129.015 103.638 128.605 103.151C128.195 102.659 127.609 102.413 126.847 102.413Z" fill="white"/>
<path d="M95.5002 0H48.8336C48.1893 0 47.6669 0.522375 47.6669 1.16667V12.8333C47.6707 16.0533 50.2802 18.6629 53.5002 18.6667H58.1669V22.1667H57.0002C57.0014 21.5495 56.5218 21.0382 55.9059 21L37.2392 19.8333C36.5961 19.7934 36.0424 20.2824 36.0024 20.9255C36.001 20.9503 36.0002 20.9751 36.0002 21V25.6667C36.0002 26.311 36.5226 26.8333 37.1669 26.8333H37.2392L55.9059 25.6667C56.5218 25.6285 57.0014 25.1172 57.0002 24.5H58.1669V26.8333C58.1669 27.4776 58.6893 28 59.3336 28H61.6669V31.5C61.6669 32.1443 62.1893 32.6667 62.8336 32.6667H64.0002V33.8333C64.0002 34.4776 64.5226 35 65.1669 35C65.8112 35 66.3336 34.4776 66.3336 33.8333V32.6667H67.5002C68.1445 32.6667 68.6669 32.1443 68.6669 31.5V28H71.0002C71.6445 28 72.1669 27.4776 72.1669 26.8333V18.6667H78.0002V51.3333H66.3336C69.5536 51.3295 72.1631 48.72 72.1669 45.5V38.5C72.1669 37.8557 71.6445 37.3333 71.0002 37.3333H59.3336C58.6893 37.3333 58.1669 37.8557 58.1669 38.5V39.6667H57.0002C56.356 39.6667 55.8336 40.189 55.8336 40.8333C55.8336 41.4776 56.356 42 57.0002 42H58.1669V45.5C58.1707 48.72 60.7802 51.3295 64.0002 51.3333H54.6669C51.4469 51.3371 48.8374 53.9467 48.8336 57.1667V68.8333C48.8336 69.4776 49.356 70 50.0002 70H95.5002C96.1445 70 96.6669 69.4776 96.6669 68.8333V1.16667C96.6669 0.522375 96.1445 0 95.5002 0ZM54.6669 23.4045L38.3336 24.4253V22.2413L54.6669 23.2622V23.4045ZM60.5002 45.5V39.6667H69.8336V45.5C69.8336 47.433 68.2666 49 66.3336 49H64.0002C62.0672 49 60.5002 47.433 60.5002 45.5ZM78.0002 67.6667H51.1669V57.1667C51.1669 55.2336 52.7339 53.6667 54.6669 53.6667H78.0002V67.6667ZM66.3336 30.3333H64.0002V28H66.3336V30.3333ZM69.8336 25.6667H60.5002V18.6667H69.8336V25.6667ZM94.3336 67.6667H80.3336V17.5C80.3336 16.8557 79.8112 16.3333 79.1669 16.3333H53.5002C51.5672 16.3333 50.0002 14.7664 50.0002 12.8333V2.33333H94.3336V67.6667Z" fill="white"/>
<path d="M86.1668 15.1667C89.3884 15.1667 92.0002 12.5549 92.0002 9.33333C92.0002 6.11173 89.3884 3.5 86.1668 3.5C82.9452 3.5 80.3335 6.11173 80.3335 9.33333C80.3373 12.5533 82.9468 15.1629 86.1668 15.1667ZM86.1668 8.16667H82.8815C83.3741 6.77323 84.689 5.83946 86.1668 5.83333C88.0999 5.82531 89.6732 7.38588 89.6813 9.31875C89.6893 11.2518 88.1287 12.8252 86.1959 12.8332C84.7073 12.8393 83.3778 11.9034 82.8815 10.4999H86.1668C86.8111 10.4999 87.3335 9.97748 87.3335 9.33319C87.3335 8.6889 86.8111 8.16667 86.1668 8.16667Z" fill="white"/>
<path d="M83.8337 25.667C83.1894 25.667 82.667 26.1894 82.667 26.8337V29.167C82.667 29.8113 83.1894 30.3337 83.8337 30.3337C84.478 30.3337 85.0003 29.8113 85.0003 29.167V26.8337C85.0003 26.1894 84.478 25.667 83.8337 25.667Z" fill="white"/>
<path d="M83.8337 32.667C83.1894 32.667 82.667 33.1894 82.667 33.8337V36.167C82.667 36.8113 83.1894 37.3337 83.8337 37.3337C84.478 37.3337 85.0003 36.8113 85.0003 36.167V33.8337C85.0003 33.1894 84.478 32.667 83.8337 32.667Z" fill="white"/>
<path d="M83.8337 39.667C83.1894 39.667 82.667 40.1894 82.667 40.8337V43.167C82.667 43.8113 83.1894 44.3337 83.8337 44.3337C84.478 44.3337 85.0003 43.8113 85.0003 43.167V40.8337C85.0003 40.1894 84.478 39.667 83.8337 39.667Z" fill="white"/>
</svg>
