<svg width="130" height="118" viewBox="0 0 130 118" fill="none" xmlns="http://www.w3.org/2000/svg">
<g clip-path="url(#clip0_154_34)">
<path d="M84.1167 23.4527V3.69141C84.1156 2.71274 83.7263 1.77449 83.0343 1.08247C82.3422 0.390445 81.404 0.00115784 80.4253 0H47.9771C46.9984 0.00115784 46.0601 0.390445 45.3681 1.08247C44.6761 1.77449 44.2868 2.71274 44.2856 3.69141V23.4527C44.286 23.9686 44.3948 24.4787 44.6051 24.9498C44.8154 25.4208 45.1224 25.8424 45.5063 26.1871C45.1224 26.5318 44.8154 26.9534 44.6051 27.4245C44.3948 27.8955 44.286 28.4056 44.2856 28.9215V62.3519C44.2868 63.3306 44.6761 64.2689 45.3681 64.9609C46.0601 65.6529 46.9984 66.0422 47.9771 66.0434H48.4785V68.9801C48.4785 69.2339 48.5794 69.4773 48.7588 69.6568C48.9383 69.8363 49.1817 69.9371 49.4356 69.9371H56.2715C56.5253 69.9371 56.7687 69.8363 56.9482 69.6568C57.1277 69.4773 57.2285 69.2339 57.2285 68.9801V66.0434H71.1738V68.9801C71.1738 69.2339 71.2747 69.4773 71.4542 69.6568C71.6336 69.8363 71.8771 69.9371 72.1309 69.9371H78.9668C79.2206 69.9371 79.4641 69.8363 79.6435 69.6568C79.823 69.4773 79.9238 69.2339 79.9238 68.9801V66.0434H80.4253C81.404 66.0422 82.3422 65.6529 83.0343 64.9609C83.7263 64.2689 84.1156 63.3306 84.1167 62.3519V28.9215C84.1164 28.4056 84.0076 27.8955 83.7973 27.4245C83.587 26.9534 83.2799 26.5318 82.8961 26.1871C83.2799 25.8424 83.587 25.4208 83.7973 24.9498C84.0076 24.4787 84.1164 23.9686 84.1167 23.4527ZM55.3145 68.023H50.3926V66.0434H55.3145V68.023ZM78.0098 68.023H73.0879V66.0434H78.0098V68.023ZM82.2027 28.9215V62.3519C82.2021 62.8232 82.0147 63.2749 81.6815 63.6081C81.3483 63.9413 80.8965 64.1287 80.4253 64.1293H47.9771C47.5058 64.1287 47.0541 63.9413 46.7209 63.6081C46.3877 63.2749 46.2003 62.8232 46.1997 62.3519V28.9215C46.2003 28.4503 46.3877 27.9985 46.7209 27.6653C47.0541 27.3322 47.5058 27.1447 47.9771 27.1441H80.4253C80.8965 27.1447 81.3483 27.3322 81.6815 27.6653C82.0147 27.9985 82.2021 28.4503 82.2027 28.9215ZM47.9771 25.2301C47.5058 25.2295 47.0541 25.0421 46.7209 24.7089C46.3877 24.3757 46.2003 23.9239 46.1997 23.4527V3.69141C46.2003 3.2202 46.3877 2.76846 46.7209 2.43527C47.0541 2.10208 47.5058 1.91464 47.9771 1.91406H80.4253C80.8965 1.91464 81.3483 2.10208 81.6815 2.43527C82.0147 2.76846 82.2021 3.2202 82.2027 3.69141V23.4527C82.2021 23.9239 82.0147 24.3757 81.6815 24.7089C81.3483 25.0421 80.8965 25.2295 80.4253 25.2301H47.9771Z" fill="white"/>
<path d="M83.5498 6.93555H78.4717C78.1091 6.93555 77.7613 7.03638 77.5049 7.21585C77.2485 7.39533 77.1045 7.63876 77.1045 7.89258V19.377C77.1045 19.6308 77.2485 19.8742 77.5049 20.0537C77.7613 20.2332 78.1091 20.334 78.4717 20.334H83.5498C83.9124 20.334 84.2602 20.2332 84.5166 20.0537C84.773 19.8742 84.917 19.6308 84.917 19.377V7.89258C84.917 7.63876 84.773 7.39533 84.5166 7.21585C84.2602 7.03638 83.9124 6.93555 83.5498 6.93555V6.93555ZM82.1826 18.4199H79.8389V8.84961H82.1826V18.4199Z" fill="white"/>
<path d="M78.4717 44.1641H83.5498C83.9124 44.1641 84.2602 44.0632 84.5166 43.8838C84.773 43.7043 84.917 43.4609 84.917 43.207V31.7227C84.917 31.4688 84.773 31.2254 84.5166 31.0459C84.2602 30.8665 83.9124 30.7656 83.5498 30.7656H78.4717C78.1091 30.7656 77.7613 30.8665 77.5049 31.0459C77.2485 31.2254 77.1045 31.4688 77.1045 31.7227V43.207C77.1045 43.4609 77.2485 43.7043 77.5049 43.8838C77.7613 44.0632 78.1091 44.1641 78.4717 44.1641ZM79.8389 32.6797H82.1826V42.25H79.8389V32.6797Z" fill="white"/>
</g>
<path d="M27.4619 111L23.1465 99.627H23.0762C23.0996 99.8672 23.1201 100.16 23.1377 100.506C23.1553 100.852 23.1699 101.229 23.1816 101.64C23.1934 102.044 23.1992 102.457 23.1992 102.879V111H21.8105V98.1504H24.0254L28.0947 108.838H28.1562L32.2871 98.1504H34.4844V111H33.0078V102.773C33.0078 102.393 33.0137 102.012 33.0254 101.631C33.0371 101.244 33.0518 100.881 33.0693 100.541C33.0869 100.195 33.1045 99.8965 33.1221 99.6445H33.0518L28.6836 111H27.4619ZM39.2393 101.367V111H37.7803V101.367H39.2393ZM38.5273 97.7637C38.7676 97.7637 38.9727 97.8428 39.1426 98.001C39.3184 98.1533 39.4062 98.3936 39.4062 98.7217C39.4062 99.0439 39.3184 99.2842 39.1426 99.4424C38.9727 99.6006 38.7676 99.6797 38.5273 99.6797C38.2754 99.6797 38.0645 99.6006 37.8945 99.4424C37.7305 99.2842 37.6484 99.0439 37.6484 98.7217C37.6484 98.3936 37.7305 98.1533 37.8945 98.001C38.0645 97.8428 38.2754 97.7637 38.5273 97.7637ZM46.8945 101.191C48.0371 101.191 48.9014 101.473 49.4873 102.035C50.0732 102.592 50.3662 103.488 50.3662 104.725V111H48.9248V104.821C48.9248 104.019 48.7402 103.418 48.3711 103.02C48.0078 102.621 47.4482 102.422 46.6924 102.422C45.626 102.422 44.876 102.724 44.4424 103.327C44.0088 103.931 43.792 104.807 43.792 105.955V111H42.333V101.367H43.5107L43.7305 102.756H43.8096C44.0146 102.416 44.2754 102.132 44.5918 101.903C44.9082 101.669 45.2627 101.493 45.6553 101.376C46.0479 101.253 46.4609 101.191 46.8945 101.191ZM54.8311 101.367V111H53.3721V101.367H54.8311ZM54.1191 97.7637C54.3594 97.7637 54.5645 97.8428 54.7344 98.001C54.9102 98.1533 54.998 98.3936 54.998 98.7217C54.998 99.0439 54.9102 99.2842 54.7344 99.4424C54.5645 99.6006 54.3594 99.6797 54.1191 99.6797C53.8672 99.6797 53.6562 99.6006 53.4863 99.4424C53.3223 99.2842 53.2402 99.0439 53.2402 98.7217C53.2402 98.3936 53.3223 98.1533 53.4863 98.001C53.6562 97.8428 53.8672 97.7637 54.1191 97.7637ZM66.8896 102.51H64.4902V111H63.0312V102.51H61.3262V101.807L63.0312 101.323V100.682C63.0312 99.873 63.1514 99.2168 63.3916 98.7129C63.6318 98.2031 63.9805 97.8281 64.4375 97.5879C64.8945 97.3477 65.4512 97.2275 66.1074 97.2275C66.4766 97.2275 66.8135 97.2598 67.1182 97.3242C67.4287 97.3887 67.7012 97.4619 67.9355 97.5439L67.5576 98.6953C67.3584 98.6309 67.1328 98.5723 66.8809 98.5195C66.6348 98.4609 66.3828 98.4316 66.125 98.4316C65.5684 98.4316 65.1553 98.6133 64.8857 98.9766C64.6221 99.334 64.4902 99.8965 64.4902 100.664V101.367H66.8896V102.51ZM73.042 101.191C73.2354 101.191 73.4375 101.203 73.6484 101.227C73.8594 101.244 74.0469 101.271 74.2109 101.306L74.0264 102.659C73.8682 102.618 73.6924 102.586 73.499 102.562C73.3057 102.539 73.124 102.527 72.9541 102.527C72.5674 102.527 72.2012 102.606 71.8555 102.765C71.5156 102.917 71.2168 103.14 70.959 103.433C70.7012 103.72 70.499 104.068 70.3525 104.479C70.2061 104.883 70.1328 105.334 70.1328 105.832V111H68.665V101.367H69.8779L70.0361 103.143H70.0977C70.2969 102.785 70.5371 102.46 70.8184 102.167C71.0996 101.868 71.4248 101.631 71.7939 101.455C72.1689 101.279 72.585 101.191 73.042 101.191ZM77.4893 101.367V111H76.0303V101.367H77.4893ZM76.7773 97.7637C77.0176 97.7637 77.2227 97.8428 77.3926 98.001C77.5684 98.1533 77.6562 98.3936 77.6562 98.7217C77.6562 99.0439 77.5684 99.2842 77.3926 99.4424C77.2227 99.6006 77.0176 99.6797 76.7773 99.6797C76.5254 99.6797 76.3145 99.6006 76.1445 99.4424C75.9805 99.2842 75.8984 99.0439 75.8984 98.7217C75.8984 98.3936 75.9805 98.1533 76.1445 98.001C76.3145 97.8428 76.5254 97.7637 76.7773 97.7637ZM84.0107 111.176C82.792 111.176 81.8252 110.76 81.1104 109.928C80.4014 109.096 80.0469 107.859 80.0469 106.219C80.0469 104.561 80.4102 103.31 81.1367 102.466C81.8633 101.616 82.8301 101.191 84.0371 101.191C84.5469 101.191 84.9922 101.259 85.373 101.394C85.7539 101.528 86.082 101.71 86.3574 101.938C86.6328 102.161 86.8643 102.416 87.0518 102.703H87.1572C87.1338 102.521 87.1104 102.272 87.0869 101.956C87.0635 101.64 87.0518 101.382 87.0518 101.183V97.3242H88.5107V111H87.333L87.1133 109.629H87.0518C86.8701 109.916 86.6387 110.177 86.3574 110.411C86.082 110.646 85.751 110.833 85.3643 110.974C84.9834 111.108 84.5322 111.176 84.0107 111.176ZM84.2393 109.963C85.2705 109.963 86 109.67 86.4277 109.084C86.8555 108.498 87.0693 107.628 87.0693 106.474V106.21C87.0693 104.985 86.8643 104.045 86.4541 103.389C86.0498 102.732 85.3115 102.404 84.2393 102.404C83.3428 102.404 82.6719 102.75 82.2266 103.441C81.7812 104.127 81.5586 105.064 81.5586 106.254C81.5586 107.438 81.7783 108.352 82.2178 108.996C82.6631 109.641 83.3369 109.963 84.2393 109.963ZM94.2939 115.324C93.0283 115.324 92.0527 115.087 91.3672 114.612C90.6816 114.144 90.3389 113.484 90.3389 112.635C90.3389 112.031 90.5293 111.516 90.9102 111.088C91.2969 110.66 91.8301 110.376 92.5098 110.235C92.2578 110.118 92.041 109.942 91.8594 109.708C91.6836 109.474 91.5957 109.204 91.5957 108.899C91.5957 108.548 91.6924 108.24 91.8857 107.977C92.085 107.707 92.3867 107.449 92.791 107.203C92.2871 106.998 91.877 106.652 91.5605 106.166C91.25 105.674 91.0947 105.103 91.0947 104.452C91.0947 103.761 91.2383 103.172 91.5254 102.686C91.8125 102.193 92.2285 101.818 92.7734 101.561C93.3184 101.303 93.9775 101.174 94.751 101.174C94.9209 101.174 95.0908 101.183 95.2607 101.2C95.4365 101.212 95.6035 101.232 95.7617 101.262C95.9199 101.285 96.0576 101.314 96.1748 101.35H99.4795V102.29L97.7041 102.51C97.8799 102.738 98.0264 103.014 98.1436 103.336C98.2607 103.658 98.3193 104.016 98.3193 104.408C98.3193 105.369 97.9941 106.134 97.3438 106.702C96.6934 107.265 95.7998 107.546 94.6631 107.546C94.3936 107.546 94.1182 107.522 93.8369 107.476C93.5498 107.634 93.3301 107.81 93.1777 108.003C93.0312 108.196 92.958 108.419 92.958 108.671C92.958 108.858 93.0137 109.008 93.125 109.119C93.2422 109.23 93.4092 109.312 93.626 109.365C93.8428 109.412 94.1035 109.436 94.4082 109.436H96.1045C97.1533 109.436 97.9561 109.655 98.5127 110.095C99.0752 110.534 99.3564 111.176 99.3564 112.02C99.3564 113.086 98.9229 113.903 98.0557 114.472C97.1885 115.04 95.9346 115.324 94.2939 115.324ZM94.3379 114.182C95.1348 114.182 95.7939 114.1 96.3154 113.936C96.8428 113.777 97.2354 113.546 97.4932 113.241C97.7568 112.942 97.8887 112.585 97.8887 112.169C97.8887 111.782 97.8008 111.489 97.625 111.29C97.4492 111.097 97.1914 110.968 96.8516 110.903C96.5117 110.833 96.0957 110.798 95.6035 110.798H93.9336C93.5 110.798 93.1221 110.865 92.7998 111C92.4775 111.135 92.2285 111.334 92.0527 111.598C91.8828 111.861 91.7979 112.189 91.7979 112.582C91.7979 113.104 92.0176 113.499 92.457 113.769C92.8965 114.044 93.5234 114.182 94.3379 114.182ZM94.7158 106.482C95.4131 106.482 95.9375 106.307 96.2891 105.955C96.6406 105.604 96.8164 105.091 96.8164 104.417C96.8164 103.696 96.6377 103.157 96.2803 102.8C95.9229 102.437 95.3955 102.255 94.6982 102.255C94.0303 102.255 93.5146 102.442 93.1514 102.817C92.7939 103.187 92.6152 103.729 92.6152 104.443C92.6152 105.1 92.7969 105.604 93.1602 105.955C93.5234 106.307 94.042 106.482 94.7158 106.482ZM105.087 101.191C105.907 101.191 106.61 101.373 107.196 101.736C107.782 102.1 108.23 102.609 108.541 103.266C108.852 103.916 109.007 104.678 109.007 105.551V106.456H102.354C102.371 107.587 102.652 108.448 103.197 109.04C103.742 109.632 104.51 109.928 105.5 109.928C106.109 109.928 106.648 109.872 107.117 109.761C107.586 109.649 108.072 109.485 108.576 109.269V110.552C108.09 110.769 107.606 110.927 107.126 111.026C106.651 111.126 106.089 111.176 105.438 111.176C104.513 111.176 103.704 110.988 103.013 110.613C102.327 110.232 101.794 109.676 101.413 108.943C101.032 108.211 100.842 107.314 100.842 106.254C100.842 105.217 101.015 104.32 101.36 103.564C101.712 102.803 102.204 102.217 102.837 101.807C103.476 101.396 104.226 101.191 105.087 101.191ZM105.069 102.387C104.29 102.387 103.669 102.642 103.206 103.151C102.743 103.661 102.468 104.373 102.38 105.287H107.478C107.472 104.713 107.381 104.209 107.205 103.775C107.035 103.336 106.774 102.996 106.423 102.756C106.071 102.51 105.62 102.387 105.069 102.387Z" fill="white"/>
<defs>
<clipPath id="clip0_154_34">
<rect width="100" height="70" fill="white" transform="translate(14.2856)"/>
</clipPath>
</defs>
</svg>
