<svg width="133" height="117" viewBox="0 0 133 117" fill="none" xmlns="http://www.w3.org/2000/svg">
<g clip-path="url(#clip0_154_59)">
<path d="M102.783 15.167H76.0167C75.3448 15.167 74.8 15.6894 74.8 16.3337V44.3337H68.7167V43.167H69.9333C70.6052 43.167 71.15 42.6446 71.15 42.0003C71.15 41.356 70.6052 40.8337 69.9333 40.8337H57.7667C57.0948 40.8337 56.55 41.356 56.55 42.0003C56.55 42.6446 57.0948 43.167 57.7667 43.167H58.9833V44.3337H46.8167V43.167H48.0333C48.7052 43.167 49.25 42.6446 49.25 42.0003C49.25 41.356 48.7052 40.8337 48.0333 40.8337H35.8667C35.1948 40.8337 34.65 41.356 34.65 42.0003C34.65 42.6446 35.1948 43.167 35.8667 43.167H37.0833V44.3337H32.2167C31.5448 44.3337 31 44.856 31 45.5003V68.8337C31 69.4779 31.5448 70.0003 32.2167 70.0003H102.783C103.455 70.0003 104 69.4779 104 68.8337V16.3337C104 15.6894 103.455 15.167 102.783 15.167ZM61.4167 43.167H66.2833V44.3337H61.4167V43.167ZM39.5167 43.167H44.3833V44.3337H39.5167V43.167ZM50.4667 67.667H33.4333V53.667H50.4667V67.667ZM50.4667 51.3337H33.4333V46.667H50.4667V51.3337ZM74.8 67.667H52.9V46.667H74.8V67.667ZM101.567 67.667H77.2333V36.167H101.567V67.667ZM101.567 33.8337H77.2333V17.5003H101.567V33.8337Z" fill="white"/>
<path d="M56.5499 65.3333H71.1499C71.8218 65.3333 72.3666 64.811 72.3666 64.1667V50.1667C72.3666 49.5224 71.8218 49 71.1499 49H56.5499C55.878 49 55.3333 49.5224 55.3333 50.1667V64.1667C55.3333 64.811 55.878 65.3333 56.5499 65.3333ZM57.7666 51.3333H69.9333V63H57.7666V51.3333Z" fill="white"/>
<path d="M79.6666 32.667C80.3385 32.667 80.8833 32.1446 80.8833 31.5003V26.8337C80.8833 26.1894 80.3385 25.667 79.6666 25.667C78.9947 25.667 78.45 26.1894 78.45 26.8337V31.5003C78.45 32.1446 78.9947 32.667 79.6666 32.667Z" fill="white"/>
<path d="M79.6666 44.333C80.3385 44.333 80.8833 43.8106 80.8833 43.1663V38.4997C80.8833 37.8554 80.3385 37.333 79.6666 37.333C78.9947 37.333 78.45 37.8554 78.45 38.4997V43.1663C78.45 43.8106 78.9947 44.333 79.6666 44.333Z" fill="white"/>
<path d="M33.8684 20.7287C34.0877 20.9043 34.3644 21.0003 34.6501 21H71.1501C71.822 21.0009 72.3675 20.4794 72.3686 19.8351C72.3691 19.5612 72.2688 19.2958 72.0857 19.0855L59.9191 5.0855C59.6874 4.81965 59.3446 4.66623 58.9834 4.66667H57.7668V1.16667C57.7668 0.522375 57.222 0 56.5501 0H49.2501C48.5782 0 48.0334 0.522375 48.0334 1.16667V4.66667H46.8168C46.4556 4.66623 46.1128 4.81965 45.8812 5.0855L33.7145 19.0855C33.2838 19.58 33.3527 20.3157 33.8684 20.7287ZM50.4668 2.33333H55.3334V4.66667H50.4668V2.33333ZM47.3874 7H58.4128L68.5525 18.6667H37.2477L47.3874 7Z" fill="white"/>
</g>
<path d="M29.5947 110H27.8281L23.1963 103.751L21.8252 104.981V110H20.3311V97.1504H21.8252V103.558C22.1592 103.177 22.502 102.799 22.8535 102.424C23.2051 102.043 23.5537 101.659 23.8994 101.272L27.6523 97.1504H29.4014L24.2861 102.723L29.5947 110ZM32.5918 100.367V110H31.1328V100.367H32.5918ZM31.8799 96.7637C32.1201 96.7637 32.3252 96.8428 32.4951 97.001C32.6709 97.1533 32.7588 97.3936 32.7588 97.7217C32.7588 98.0439 32.6709 98.2842 32.4951 98.4424C32.3252 98.6006 32.1201 98.6797 31.8799 98.6797C31.6279 98.6797 31.417 98.6006 31.2471 98.4424C31.083 98.2842 31.001 98.0439 31.001 97.7217C31.001 97.3936 31.083 97.1533 31.2471 97.001C31.417 96.8428 31.6279 96.7637 31.8799 96.7637ZM38.7969 108.98C39.0371 108.98 39.2832 108.96 39.5352 108.919C39.7871 108.878 39.9922 108.828 40.1504 108.77V109.903C39.9805 109.979 39.7432 110.044 39.4385 110.097C39.1396 110.149 38.8467 110.176 38.5596 110.176C38.0498 110.176 37.5869 110.088 37.1709 109.912C36.7549 109.73 36.4209 109.426 36.1689 108.998C35.9229 108.57 35.7998 107.979 35.7998 107.223V101.51H34.4287V100.798L35.8086 100.227L36.3887 98.1348H37.2676V100.367H40.0889V101.51H37.2676V107.179C37.2676 107.782 37.4053 108.233 37.6807 108.532C37.9619 108.831 38.334 108.98 38.7969 108.98ZM45.96 110.176C45.0928 110.176 44.3281 109.997 43.666 109.64C43.0039 109.282 42.4883 108.737 42.1191 108.005C41.75 107.272 41.5654 106.35 41.5654 105.236C41.5654 104.07 41.7588 103.118 42.1455 102.38C42.5381 101.636 43.0771 101.085 43.7627 100.728C44.4482 100.37 45.2275 100.191 46.1006 100.191C46.5811 100.191 47.0439 100.241 47.4893 100.341C47.9404 100.435 48.3096 100.555 48.5967 100.701L48.1572 101.923C47.8643 101.806 47.5244 101.7 47.1377 101.606C46.7568 101.513 46.3994 101.466 46.0654 101.466C45.3975 101.466 44.8408 101.609 44.3955 101.896C43.9561 102.184 43.625 102.605 43.4023 103.162C43.1855 103.719 43.0771 104.404 43.0771 105.219C43.0771 105.998 43.1826 106.663 43.3936 107.214C43.6104 107.765 43.9297 108.187 44.3516 108.479C44.7793 108.767 45.3125 108.91 45.9512 108.91C46.4609 108.91 46.9209 108.857 47.3311 108.752C47.7412 108.641 48.1133 108.512 48.4473 108.365V109.666C48.125 109.83 47.7646 109.956 47.3662 110.044C46.9736 110.132 46.5049 110.176 45.96 110.176ZM52.1914 96.3242V100.411C52.1914 100.646 52.1855 100.883 52.1738 101.123C52.1621 101.357 52.1416 101.574 52.1123 101.773H52.209C52.4082 101.434 52.6602 101.149 52.9648 100.921C53.2754 100.687 53.627 100.511 54.0195 100.394C54.4121 100.271 54.8281 100.209 55.2676 100.209C56.041 100.209 56.6855 100.332 57.2012 100.578C57.7227 100.824 58.1123 101.205 58.3701 101.721C58.6338 102.236 58.7656 102.904 58.7656 103.725V110H57.3242V103.821C57.3242 103.019 57.1396 102.418 56.7705 102.02C56.4072 101.621 55.8477 101.422 55.0918 101.422C54.377 101.422 53.8057 101.56 53.3779 101.835C52.9561 102.104 52.6514 102.503 52.4639 103.03C52.2822 103.558 52.1914 104.202 52.1914 104.964V110H50.7324V96.3242H52.1914ZM65.4805 100.191C66.3008 100.191 67.0039 100.373 67.5898 100.736C68.1758 101.1 68.624 101.609 68.9346 102.266C69.2451 102.916 69.4004 103.678 69.4004 104.551V105.456H62.7471C62.7646 106.587 63.0459 107.448 63.5908 108.04C64.1357 108.632 64.9033 108.928 65.8936 108.928C66.5029 108.928 67.042 108.872 67.5107 108.761C67.9795 108.649 68.4658 108.485 68.9697 108.269V109.552C68.4834 109.769 68 109.927 67.5195 110.026C67.0449 110.126 66.4824 110.176 65.832 110.176C64.9062 110.176 64.0977 109.988 63.4062 109.613C62.7207 109.232 62.1875 108.676 61.8066 107.943C61.4258 107.211 61.2354 106.314 61.2354 105.254C61.2354 104.217 61.4082 103.32 61.7539 102.564C62.1055 101.803 62.5977 101.217 63.2305 100.807C63.8691 100.396 64.6191 100.191 65.4805 100.191ZM65.4629 101.387C64.6836 101.387 64.0625 101.642 63.5996 102.151C63.1367 102.661 62.8613 103.373 62.7734 104.287H67.8711C67.8652 103.713 67.7744 103.209 67.5986 102.775C67.4287 102.336 67.168 101.996 66.8164 101.756C66.4648 101.51 66.0137 101.387 65.4629 101.387ZM76.4404 100.191C77.583 100.191 78.4473 100.473 79.0332 101.035C79.6191 101.592 79.9121 102.488 79.9121 103.725V110H78.4707V103.821C78.4707 103.019 78.2861 102.418 77.917 102.02C77.5537 101.621 76.9941 101.422 76.2383 101.422C75.1719 101.422 74.4219 101.724 73.9883 102.327C73.5547 102.931 73.3379 103.807 73.3379 104.955V110H71.8789V100.367H73.0566L73.2764 101.756H73.3555C73.5605 101.416 73.8213 101.132 74.1377 100.903C74.4541 100.669 74.8086 100.493 75.2012 100.376C75.5938 100.253 76.0068 100.191 76.4404 100.191ZM86.627 100.191C87.4473 100.191 88.1504 100.373 88.7363 100.736C89.3223 101.1 89.7705 101.609 90.0811 102.266C90.3916 102.916 90.5469 103.678 90.5469 104.551V105.456H83.8936C83.9111 106.587 84.1924 107.448 84.7373 108.04C85.2822 108.632 86.0498 108.928 87.04 108.928C87.6494 108.928 88.1885 108.872 88.6572 108.761C89.126 108.649 89.6123 108.485 90.1162 108.269V109.552C89.6299 109.769 89.1465 109.927 88.666 110.026C88.1914 110.126 87.6289 110.176 86.9785 110.176C86.0527 110.176 85.2441 109.988 84.5527 109.613C83.8672 109.232 83.334 108.676 82.9531 107.943C82.5723 107.211 82.3818 106.314 82.3818 105.254C82.3818 104.217 82.5547 103.32 82.9004 102.564C83.252 101.803 83.7441 101.217 84.377 100.807C85.0156 100.396 85.7656 100.191 86.627 100.191ZM86.6094 101.387C85.8301 101.387 85.209 101.642 84.7461 102.151C84.2832 102.661 84.0078 103.373 83.9199 104.287H89.0176C89.0117 103.713 88.9209 103.209 88.7451 102.775C88.5752 102.336 88.3145 101.996 87.9629 101.756C87.6113 101.51 87.1602 101.387 86.6094 101.387ZM96.1367 108.98C96.377 108.98 96.623 108.96 96.875 108.919C97.127 108.878 97.332 108.828 97.4902 108.77V109.903C97.3203 109.979 97.083 110.044 96.7783 110.097C96.4795 110.149 96.1865 110.176 95.8994 110.176C95.3896 110.176 94.9268 110.088 94.5107 109.912C94.0947 109.73 93.7607 109.426 93.5088 108.998C93.2627 108.57 93.1396 107.979 93.1396 107.223V101.51H91.7686V100.798L93.1484 100.227L93.7285 98.1348H94.6074V100.367H97.4287V101.51H94.6074V107.179C94.6074 107.782 94.7451 108.233 95.0205 108.532C95.3018 108.831 95.6738 108.98 96.1367 108.98ZM102.553 108.98C102.793 108.98 103.039 108.96 103.291 108.919C103.543 108.878 103.748 108.828 103.906 108.77V109.903C103.736 109.979 103.499 110.044 103.194 110.097C102.896 110.149 102.603 110.176 102.315 110.176C101.806 110.176 101.343 110.088 100.927 109.912C100.511 109.73 100.177 109.426 99.9248 108.998C99.6787 108.57 99.5557 107.979 99.5557 107.223V101.51H98.1846V100.798L99.5645 100.227L100.145 98.1348H101.023V100.367H103.845V101.51H101.023V107.179C101.023 107.782 101.161 108.233 101.437 108.532C101.718 108.831 102.09 108.98 102.553 108.98ZM109.566 100.191C110.387 100.191 111.09 100.373 111.676 100.736C112.262 101.1 112.71 101.609 113.021 102.266C113.331 102.916 113.486 103.678 113.486 104.551V105.456H106.833C106.851 106.587 107.132 107.448 107.677 108.04C108.222 108.632 108.989 108.928 109.979 108.928C110.589 108.928 111.128 108.872 111.597 108.761C112.065 108.649 112.552 108.485 113.056 108.269V109.552C112.569 109.769 112.086 109.927 111.605 110.026C111.131 110.126 110.568 110.176 109.918 110.176C108.992 110.176 108.184 109.988 107.492 109.613C106.807 109.232 106.273 108.676 105.893 107.943C105.512 107.211 105.321 106.314 105.321 105.254C105.321 104.217 105.494 103.32 105.84 102.564C106.191 101.803 106.684 101.217 107.316 100.807C107.955 100.396 108.705 100.191 109.566 100.191ZM109.549 101.387C108.77 101.387 108.148 101.642 107.686 102.151C107.223 102.661 106.947 103.373 106.859 104.287H111.957C111.951 103.713 111.86 103.209 111.685 102.775C111.515 102.336 111.254 101.996 110.902 101.756C110.551 101.51 110.1 101.387 109.549 101.387Z" fill="white"/>
<defs>
<clipPath id="clip0_154_59">
<rect width="73" height="70" fill="white" transform="translate(31)"/>
</clipPath>
</defs>
</svg>
