<svg width="144" height="114" viewBox="0 0 144 114" fill="none" xmlns="http://www.w3.org/2000/svg">
<g clip-path="url(#clip0_154_107)">
<path d="M72.0004 0C57.2047 0 45.167 12.6654 45.167 28.2334C45.167 43.4898 70.1138 68.5966 71.1755 69.6594C71.403 69.8857 71.7018 70.0001 72.0004 70.0001C72.2991 70.0001 72.5977 69.8858 72.8252 69.6583C73.8868 68.5967 98.8337 43.49 98.8337 28.2335C98.8337 12.6654 86.7961 0 72.0004 0ZM72.0004 67.1627C67.6382 62.6384 47.5004 41.0491 47.5004 28.2334C47.5004 13.9521 58.4916 2.33338 72.0004 2.33338C85.5091 2.33338 96.5004 13.9521 96.5004 28.2334C96.5004 41.0434 76.3614 62.6371 72.0004 67.1627Z" fill="white"/>
<path d="M72.0002 5.83301C60.4211 5.83301 51.0002 15.2539 51.0002 26.833C51.0002 38.4121 60.4211 47.833 72.0002 47.833C83.5794 47.833 93.0002 38.4121 93.0002 26.833C93.0002 15.2539 83.5794 5.83301 72.0002 5.83301ZM72.0002 45.4996C61.7067 45.4996 53.3336 37.1253 53.3336 26.833C53.3336 16.5407 61.7067 8.16625 72.0002 8.16625C82.2938 8.16625 90.6669 16.5405 90.6669 26.8329C90.6669 37.1252 82.2938 45.4996 72.0002 45.4996Z" fill="white"/>
<path d="M72.0004 57.167C71.3564 57.167 70.8337 57.6897 70.8337 58.3336V68.8336C70.8337 69.4776 71.3564 70.0002 72.0004 70.0002C72.6443 70.0002 73.167 69.4776 73.167 68.8336V58.3336C73.167 57.6897 72.6443 57.167 72.0004 57.167Z" fill="white"/>
<path d="M74.3337 18.667H69.6671C69.0232 18.667 68.5005 19.1897 68.5005 19.8336V24.5004C68.5005 25.1443 69.0232 25.667 69.6671 25.667H74.3337C76.2634 25.667 77.8337 24.0966 77.8337 22.167C77.8337 20.2373 76.2634 18.667 74.3337 18.667ZM74.3337 23.3338H70.8337V21.0004H74.3337C74.9777 21.0004 75.5004 21.5241 75.5004 22.167C75.5004 22.8098 74.9777 23.3338 74.3337 23.3338Z" fill="white"/>
<path d="M74.3335 14H65.0001C64.3562 14 63.8335 14.5227 63.8335 15.1666V38.5C63.8335 39.1439 64.3562 39.6666 65.0001 39.6666H69.6667C70.3107 39.6666 70.8334 39.1439 70.8334 38.5V30.3334H74.3334C78.8367 30.3334 82.5 26.67 82.5 22.1668C82.5 17.6635 78.8367 14 74.3335 14ZM74.3335 28H69.6669C69.0229 28 68.5003 28.5227 68.5003 29.1666V37.3332H66.1669V16.3332H74.3335C77.5499 16.3332 80.1669 18.95 80.1669 22.1666C80.1667 25.3832 77.5499 28 74.3335 28Z" fill="white"/>
<path d="M105.834 67.667H101.167C100.523 67.667 100 68.1897 100 68.8336C100 69.4776 100.523 70.0002 101.167 70.0002H105.834C106.478 70.0002 107 69.4776 107 68.8336C107 68.1897 106.478 67.667 105.834 67.667Z" fill="white"/>
<path d="M65.0002 67.667H38.1669C37.5229 67.667 37.0002 68.1897 37.0002 68.8336C37.0002 69.4775 37.5229 70.0003 38.1669 70.0003H65.0002C65.6442 70.0003 66.1669 69.4777 66.1669 68.8337C66.1669 68.1898 65.6442 67.667 65.0002 67.667Z" fill="white"/>
<path d="M93.0004 67.667H79.0004C78.3564 67.667 77.8337 68.1897 77.8337 68.8336C77.8337 69.4775 78.3564 70.0003 79.0004 70.0003H93.0004C93.6443 70.0003 94.167 69.4777 94.167 68.8337C94.167 68.1898 93.6443 67.667 93.0004 67.667Z" fill="white"/>
</g>
<path d="M50.344 99.8945C50.344 101.195 49.8987 102.197 49.0081 102.9C48.1233 103.598 46.8547 103.946 45.2024 103.946H43.6907V109H42.1965V96.1504H45.5276C48.7385 96.1504 50.344 97.3984 50.344 99.8945ZM43.6907 102.663H45.0354C46.3596 102.663 47.3176 102.449 47.9094 102.021C48.5012 101.594 48.7971 100.908 48.7971 99.9648C48.7971 99.1152 48.5188 98.4824 47.9622 98.0664C47.4055 97.6504 46.5383 97.4424 45.3606 97.4424H43.6907V102.663ZM58.7463 109L58.4563 107.629H58.386C57.9055 108.232 57.425 108.643 56.9446 108.859C56.47 109.07 55.8752 109.176 55.1604 109.176C54.2053 109.176 53.4553 108.93 52.9104 108.438C52.3713 107.945 52.1018 107.245 52.1018 106.337C52.1018 104.392 53.6575 103.372 56.7688 103.278L58.4036 103.226V102.628C58.4036 101.872 58.2395 101.315 57.9114 100.958C57.5891 100.595 57.0706 100.413 56.3557 100.413C55.553 100.413 54.6448 100.659 53.6311 101.151L53.1829 100.035C53.6575 99.7773 54.176 99.5752 54.7385 99.4287C55.3069 99.2822 55.8752 99.209 56.4436 99.209C57.592 99.209 58.4417 99.4639 58.9924 99.9736C59.5491 100.483 59.8274 101.301 59.8274 102.426V109H58.7463ZM55.4504 107.972C56.3586 107.972 57.0706 107.723 57.5862 107.225C58.1077 106.727 58.3684 106.029 58.3684 105.133V104.263L56.9094 104.324C55.7493 104.365 54.9114 104.547 54.3958 104.869C53.886 105.186 53.6311 105.681 53.6311 106.354C53.6311 106.882 53.7893 107.283 54.1057 107.559C54.428 107.834 54.8762 107.972 55.4504 107.972ZM67.2366 99.1914C67.6643 99.1914 68.0481 99.2266 68.3879 99.2969L68.1858 100.65C67.7874 100.562 67.4358 100.519 67.1311 100.519C66.3518 100.519 65.6838 100.835 65.1272 101.468C64.5764 102.101 64.301 102.889 64.301 103.832V109H62.842V99.3672H64.0461L64.2131 101.151H64.2834C64.6409 100.524 65.0715 100.041 65.5754 99.7012C66.0793 99.3613 66.6331 99.1914 67.2366 99.1914ZM71.6311 104.069C71.8831 103.712 72.2668 103.243 72.7825 102.663L75.8938 99.3672H77.6252L73.7229 103.472L77.8977 109H76.1311L72.7297 104.447L71.6311 105.396V109H70.1897V95.3242H71.6311V102.575C71.6311 102.897 71.6077 103.396 71.5608 104.069H71.6311ZM81.1057 109H79.6467V99.3672H81.1057V109ZM79.5237 96.7568C79.5237 96.4229 79.6057 96.1797 79.7698 96.0273C79.9338 95.8691 80.1389 95.79 80.385 95.79C80.6194 95.79 80.8215 95.8691 80.9915 96.0273C81.1614 96.1855 81.2463 96.4287 81.2463 96.7568C81.2463 97.085 81.1614 97.3311 80.9915 97.4951C80.8215 97.6533 80.6194 97.7324 80.385 97.7324C80.1389 97.7324 79.9338 97.6533 79.7698 97.4951C79.6057 97.3311 79.5237 97.085 79.5237 96.7568ZM90.7913 109V102.769C90.7913 101.983 90.6125 101.397 90.2551 101.011C89.8977 100.624 89.3381 100.431 88.5764 100.431C87.5686 100.431 86.8303 100.703 86.3616 101.248C85.8928 101.793 85.6584 102.692 85.6584 103.946V109H84.1995V99.3672H85.386L85.6233 100.686H85.6936C85.9924 100.211 86.4114 99.8447 86.9504 99.5869C87.4895 99.3232 88.0901 99.1914 88.7522 99.1914C89.9124 99.1914 90.7854 99.4727 91.3713 100.035C91.9573 100.592 92.2502 101.485 92.2502 102.716V109H90.7913ZM103.14 99.3672V100.29L101.356 100.501C101.52 100.706 101.666 100.976 101.795 101.31C101.924 101.638 101.989 102.01 101.989 102.426C101.989 103.369 101.666 104.122 101.022 104.685C100.377 105.247 99.4924 105.528 98.3674 105.528C98.0803 105.528 97.8108 105.505 97.5588 105.458C96.9377 105.786 96.6272 106.199 96.6272 106.697C96.6272 106.961 96.7356 107.157 96.9524 107.286C97.1692 107.409 97.5413 107.471 98.0686 107.471H99.7737C100.817 107.471 101.616 107.69 102.173 108.13C102.736 108.569 103.017 109.208 103.017 110.046C103.017 111.112 102.589 111.924 101.734 112.48C100.878 113.043 99.6301 113.324 97.9895 113.324C96.7297 113.324 95.7571 113.09 95.0715 112.621C94.3918 112.152 94.052 111.49 94.052 110.635C94.052 110.049 94.2395 109.542 94.6145 109.114C94.9895 108.687 95.5168 108.396 96.1965 108.244C95.9504 108.133 95.7424 107.96 95.5725 107.726C95.4084 107.491 95.3264 107.219 95.3264 106.908C95.3264 106.557 95.4202 106.249 95.6077 105.985C95.7952 105.722 96.0911 105.467 96.4954 105.221C95.9973 105.016 95.5901 104.667 95.2737 104.175C94.9631 103.683 94.8079 103.12 94.8079 102.487C94.8079 101.433 95.1243 100.621 95.7571 100.053C96.3899 99.4785 97.2864 99.1914 98.4465 99.1914C98.9504 99.1914 99.4045 99.25 99.8088 99.3672H103.14ZM95.4583 110.617C95.4583 111.139 95.678 111.534 96.1174 111.804C96.5569 112.073 97.1868 112.208 98.0071 112.208C99.2317 112.208 100.137 112.023 100.723 111.654C101.315 111.291 101.611 110.796 101.611 110.169C101.611 109.647 101.449 109.284 101.127 109.079C100.805 108.88 100.198 108.78 99.3079 108.78H97.5588C96.8967 108.78 96.3811 108.938 96.012 109.255C95.6428 109.571 95.4583 110.025 95.4583 110.617ZM96.2493 102.452C96.2493 103.126 96.4397 103.636 96.8206 103.981C97.2014 104.327 97.7317 104.5 98.4114 104.5C99.8352 104.5 100.547 103.809 100.547 102.426C100.547 100.979 99.8264 100.255 98.385 100.255C97.6995 100.255 97.1721 100.439 96.803 100.809C96.4338 101.178 96.2493 101.726 96.2493 102.452Z" fill="white"/>
<defs>
<clipPath id="clip0_154_107">
<rect width="70" height="70" fill="white" transform="translate(37.0002)"/>
</clipPath>
</defs>
</svg>
