<svg width="144" height="109" viewBox="0 0 144 109" fill="none" xmlns="http://www.w3.org/2000/svg">
<path d="M95.9166 0C93.9836 0 92.4166 1.56698 92.4166 3.5V4.66667H66.7499C63.5299 4.67046 60.9204 7.28 60.9166 10.5V16.3333H58.5833C56.6502 16.3333 55.0833 17.9003 55.0833 19.8333V23.8525C50.0014 26.9849 46.9096 32.5303 46.9166 38.5V39.8813C45.5231 40.374 44.5894 41.6888 44.5833 43.1667V45.5C44.5833 46.1443 45.1056 46.6667 45.7499 46.6667H83.0833C83.7275 46.6667 84.2499 46.1443 84.2499 45.5V43.1667C84.2438 41.6888 83.31 40.374 81.9166 39.8813V38.5C81.9234 33.8543 80.0757 29.3981 76.7833 26.1205C75.8683 25.2382 74.8496 24.47 73.7499 23.8327V19.8333C73.7499 17.9003 72.1829 16.3333 70.2499 16.3333H67.9166V12.8333C67.9166 12.189 68.439 11.6667 69.0833 11.6667H92.4166V14C92.4166 15.933 93.9836 17.5 95.9166 17.5H99.4166V0H95.9166ZM81.9166 43.1667V44.3333H46.9166V43.1667C46.9166 42.5224 47.439 42 48.0833 42H80.7499C81.3942 42 81.9166 42.5224 81.9166 43.1667ZM75.1394 27.7737C77.9905 30.6144 79.59 34.4753 79.5833 38.5V39.6667H49.2499V38.5C49.2461 33.2284 52.0295 28.3477 56.5684 25.6667H72.2729C73.3165 26.2405 74.2803 26.9488 75.1394 27.7737ZM70.2499 18.6667C70.8942 18.6667 71.4166 19.189 71.4166 19.8333V23.3333H57.4166V19.8333C57.4166 19.189 57.939 18.6667 58.5833 18.6667H70.2499ZM92.4166 9.33333H69.0833C67.1502 9.33333 65.5833 10.9003 65.5833 12.8333V16.3333H63.2499V10.5C63.2499 8.56698 64.8169 7 66.7499 7H92.4166V9.33333ZM97.0833 15.1667H95.9166C95.2723 15.1667 94.7499 14.6443 94.7499 14V3.5C94.7499 2.85571 95.2723 2.33333 95.9166 2.33333H97.0833V15.1667Z" fill="white"/>
<path d="M64.4167 49C63.7724 49 63.25 49.5224 63.25 50.1667V54.8333C63.25 55.4776 63.7724 56 64.4167 56C65.061 56 65.5833 55.4776 65.5833 54.8333V50.1667C65.5833 49.5224 65.061 49 64.4167 49Z" fill="white"/>
<path d="M64.4167 58.333C63.7724 58.333 63.25 58.8554 63.25 59.4997V64.1663C63.25 64.8106 63.7724 65.333 64.4167 65.333C65.061 65.333 65.5833 64.8106 65.5833 64.1663V59.4997C65.5833 58.8554 65.061 58.333 64.4167 58.333Z" fill="white"/>
<path d="M78.4167 53.667C77.7724 53.667 77.25 54.1894 77.25 54.8337V59.5003C77.25 60.1446 77.7724 60.667 78.4167 60.667C79.061 60.667 79.5833 60.1446 79.5833 59.5003V54.8337C79.5833 54.1894 79.061 53.667 78.4167 53.667Z" fill="white"/>
<path d="M69.0834 53.667C68.4391 53.667 67.9167 54.1894 67.9167 54.8337V59.5003C67.9167 60.1446 68.4391 60.667 69.0834 60.667C69.7277 60.667 70.2501 60.1446 70.2501 59.5003V54.8337C70.2501 54.1894 69.7277 53.667 69.0834 53.667Z" fill="white"/>
<path d="M59.7499 53.667C59.1056 53.667 58.5833 54.1894 58.5833 54.8337V59.5003C58.5833 60.1446 59.1056 60.667 59.7499 60.667C60.3942 60.667 60.9166 60.1446 60.9166 59.5003V54.8337C60.9166 54.1894 60.3942 53.667 59.7499 53.667Z" fill="white"/>
<path d="M50.4167 53.667C49.7724 53.667 49.25 54.1894 49.25 54.8337V59.5003C49.25 60.1446 49.7724 60.667 50.4167 60.667C51.061 60.667 51.5833 60.1446 51.5833 59.5003V54.8337C51.5833 54.1894 51.061 53.667 50.4167 53.667Z" fill="white"/>
<path d="M55.0834 49C54.4391 49 53.9167 49.5224 53.9167 50.1667V54.8333C53.9167 55.4776 54.4391 56 55.0834 56C55.7277 56 56.2501 55.4776 56.2501 54.8333V50.1667C56.2501 49.5224 55.7277 49 55.0834 49Z" fill="white"/>
<path d="M73.7499 49C73.1056 49 72.5833 49.5224 72.5833 50.1667V54.8333C72.5833 55.4776 73.1056 56 73.7499 56C74.3942 56 74.9166 55.4776 74.9166 54.8333V50.1667C74.9166 49.5224 74.3942 49 73.7499 49Z" fill="white"/>
<path d="M73.7499 58.333C73.1056 58.333 72.5833 58.8554 72.5833 59.4997V64.1663C72.5833 64.8106 73.1056 65.333 73.7499 65.333C74.3942 65.333 74.9166 64.8106 74.9166 64.1663V59.4997C74.9166 58.8554 74.3942 58.333 73.7499 58.333Z" fill="white"/>
<path d="M55.0834 58.333C54.4391 58.333 53.9167 58.8554 53.9167 59.4997V64.1663C53.9167 64.8106 54.4391 65.333 55.0834 65.333C55.7277 65.333 56.2501 64.8106 56.2501 64.1663V59.4997C56.2501 58.8554 55.7277 58.333 55.0834 58.333Z" fill="white"/>
<path d="M59.7499 63C59.1056 63 58.5833 63.5224 58.5833 64.1667V68.8333C58.5833 69.4776 59.1056 70 59.7499 70C60.3942 70 60.9166 69.4776 60.9166 68.8333V64.1667C60.9166 63.5224 60.3942 63 59.7499 63Z" fill="white"/>
<path d="M69.0834 63C68.4391 63 67.9167 63.5224 67.9167 64.1667V68.8333C67.9167 69.4776 68.4391 70 69.0834 70C69.7277 70 70.2501 69.4776 70.2501 68.8333V64.1667C70.2501 63.5224 69.7277 63 69.0834 63Z" fill="white"/>
<path d="M49.377 100.581C49.377 101.712 48.9668 102.594 48.1465 103.227C47.3262 103.859 46.2129 104.176 44.8066 104.176C43.2832 104.176 42.1113 103.979 41.291 103.587V102.146C41.8184 102.368 42.3926 102.544 43.0137 102.673C43.6348 102.802 44.25 102.866 44.8594 102.866C45.8555 102.866 46.6055 102.679 47.1094 102.304C47.6133 101.923 47.8652 101.396 47.8652 100.722C47.8652 100.276 47.7744 99.9131 47.5928 99.6318C47.417 99.3447 47.1182 99.0811 46.6963 98.8408C46.2803 98.6006 45.6445 98.3281 44.7891 98.0234C43.5938 97.5957 42.7383 97.0889 42.2227 96.5029C41.7129 95.917 41.458 95.1523 41.458 94.209C41.458 93.2188 41.8301 92.4307 42.5742 91.8447C43.3184 91.2588 44.3027 90.9658 45.5273 90.9658C46.8047 90.9658 47.9795 91.2002 49.0518 91.6689L48.5859 92.9697C47.5254 92.5244 46.4941 92.3018 45.4922 92.3018C44.7012 92.3018 44.083 92.4717 43.6377 92.8115C43.1924 93.1514 42.9697 93.623 42.9697 94.2266C42.9697 94.6719 43.0518 95.0381 43.2158 95.3252C43.3799 95.6064 43.6553 95.8672 44.042 96.1074C44.4346 96.3418 45.0322 96.6025 45.835 96.8896C47.1826 97.3701 48.1084 97.8857 48.6123 98.4365C49.1221 98.9873 49.377 99.7021 49.377 100.581ZM58.377 104V97.7686C58.377 96.9834 58.1982 96.3975 57.8408 96.0107C57.4834 95.624 56.9238 95.4307 56.1621 95.4307C55.1484 95.4307 54.4072 95.7061 53.9385 96.2568C53.4756 96.8076 53.2441 97.71 53.2441 98.9639V104H51.7852V90.3242H53.2441V94.4639C53.2441 94.9619 53.2207 95.375 53.1738 95.7031H53.2617C53.5488 95.2402 53.9561 94.877 54.4834 94.6133C55.0166 94.3438 55.623 94.209 56.3027 94.209C57.4805 94.209 58.3623 94.4902 58.9482 95.0527C59.54 95.6094 59.8359 96.4971 59.8359 97.7158V104H58.377ZM71.1562 99.1748C71.1562 100.745 70.7607 101.973 69.9697 102.857C69.1787 103.736 68.0859 104.176 66.6914 104.176C65.8301 104.176 65.0654 103.974 64.3975 103.569C63.7295 103.165 63.2139 102.585 62.8506 101.829C62.4873 101.073 62.3057 100.188 62.3057 99.1748C62.3057 97.6045 62.6982 96.3828 63.4834 95.5098C64.2686 94.6309 65.3584 94.1914 66.7529 94.1914C68.1006 94.1914 69.1699 94.6396 69.9609 95.5361C70.7578 96.4326 71.1562 97.6455 71.1562 99.1748ZM63.8174 99.1748C63.8174 100.405 64.0635 101.343 64.5557 101.987C65.0479 102.632 65.7715 102.954 66.7266 102.954C67.6816 102.954 68.4053 102.635 68.8975 101.996C69.3955 101.352 69.6445 100.411 69.6445 99.1748C69.6445 97.9502 69.3955 97.0215 68.8975 96.3887C68.4053 95.75 67.6758 95.4307 66.709 95.4307C65.7539 95.4307 65.0332 95.7441 64.5469 96.3711C64.0605 96.998 63.8174 97.9326 63.8174 99.1748ZM81.5889 104L79.8223 98.3486C79.7109 98.0029 79.5029 97.2178 79.1982 95.9932H79.1279C78.8936 97.0186 78.6885 97.8096 78.5127 98.3662L76.6934 104H75.0059L72.3779 94.3672H73.9072C74.5283 96.7871 75 98.6299 75.3223 99.8955C75.6504 101.161 75.8379 102.014 75.8848 102.453H75.9551C76.0195 102.119 76.1221 101.688 76.2627 101.161C76.4092 100.628 76.5352 100.206 76.6406 99.8955L78.4072 94.3672H79.9893L81.7119 99.8955C82.04 100.903 82.2627 101.75 82.3799 102.436H82.4502C82.4736 102.225 82.5352 101.899 82.6348 101.46C82.7402 101.021 83.3525 98.6562 84.4717 94.3672H85.9834L83.3203 104H81.5889ZM91.8018 104.176C90.3779 104.176 89.2529 103.742 88.4268 102.875C87.6064 102.008 87.1963 100.804 87.1963 99.2627C87.1963 97.71 87.5771 96.4766 88.3389 95.5625C89.1064 94.6484 90.1348 94.1914 91.4238 94.1914C92.6309 94.1914 93.5859 94.5898 94.2891 95.3867C94.9922 96.1777 95.3438 97.2236 95.3438 98.5244V99.4473H88.708C88.7373 100.578 89.0215 101.437 89.5605 102.022C90.1055 102.608 90.8701 102.901 91.8545 102.901C92.8916 102.901 93.917 102.685 94.9307 102.251V103.552C94.415 103.774 93.9258 103.933 93.4629 104.026C93.0059 104.126 92.4521 104.176 91.8018 104.176ZM91.4062 95.4131C90.6328 95.4131 90.0146 95.665 89.5518 96.1689C89.0947 96.6729 88.8252 97.3701 88.7432 98.2607H93.7793C93.7793 97.3408 93.5742 96.6377 93.1641 96.1514C92.7539 95.6592 92.168 95.4131 91.4062 95.4131ZM102.234 94.1914C102.662 94.1914 103.046 94.2266 103.386 94.2969L103.184 95.6504C102.785 95.5625 102.434 95.5186 102.129 95.5186C101.35 95.5186 100.682 95.835 100.125 96.4678C99.5742 97.1006 99.2988 97.8887 99.2988 98.832V104H97.8398V94.3672H99.0439L99.2109 96.1514H99.2812C99.6387 95.5244 100.069 95.041 100.573 94.7012C101.077 94.3613 101.631 94.1914 102.234 94.1914Z" fill="white"/>
</svg>
