<svg width="143" height="118" viewBox="0 0 143 118" fill="none" xmlns="http://www.w3.org/2000/svg">
<path d="M102.982 36.7881L99.8928 27.2846C98.3364 22.4955 95.5515 18.1657 91.8392 14.7633C88.1271 11.3606 83.5715 8.9626 78.665 7.82825L71.8824 6.26009C71.8809 6.25982 53.0621 2.16551 53.0621 2.16551C52.507 2.04438 51.9606 2.39656 51.8399 2.95068C51.7193 3.50508 52.0708 4.05222 52.6251 4.17281L71.4194 8.26178C71.4195 8.26178 71.4589 8.27094 71.4589 8.27094C75.7468 9.21567 78.9178 12.7708 79.3534 17.1265C79.8861 22.4508 81.0397 28.3707 82.7827 34.722C85.1017 43.1724 84.9887 50.2363 84.4856 54.6737C84.09 58.1632 83.3984 60.6199 83.043 61.7195H69.3273C68.7599 61.7195 68.3001 62.1793 68.3001 62.7467C68.3001 63.3141 68.7599 63.7738 69.3273 63.7738H83.19L85.3641 67.4193C85.4543 67.5707 85.4051 67.7037 85.3677 67.7694C85.3303 67.8352 85.2413 67.9455 85.0651 67.9455H41.4067C41.2304 67.9455 41.1414 67.8352 41.104 67.7694C41.0666 67.7038 41.0174 67.5707 41.1077 67.4194L43.2818 63.7738H65.2185C65.7859 63.7738 66.2457 63.3141 66.2457 62.7467C66.2457 62.1793 65.7859 61.7195 65.2185 61.7195H43.4585C41.8022 56.239 41.1707 51.3613 41.4795 46.4321C41.7671 41.8426 42.8309 37.776 43.9569 33.4707C45.3592 28.1089 46.8094 22.5647 46.9546 15.4027C47.0351 11.4391 44.6206 6.27349 42.5809 2.63801C42.4422 2.29211 42.6262 2.0467 42.9978 2.07842L48.6117 3.29986C49.1669 3.42099 49.7133 3.06867 49.8339 2.51469C49.9544 1.96029 49.6029 1.41315 49.0487 1.29256L43.4346 0.0705721C41.4586 -0.437063 39.7259 1.90137 40.7892 3.64275C42.3567 6.43687 44.9756 11.6747 44.9008 15.3606C44.7604 22.2797 43.3415 27.7044 41.9694 32.9505C39.7226 41.5408 37.5999 49.6607 41.5818 62.6134L39.3433 66.3671C38.8949 67.1192 38.8852 68.0226 39.3176 68.784C39.7502 69.5454 40.531 70 41.4067 70H85.0652C85.9408 70 86.7217 69.5455 87.1542 68.784C87.5867 68.0228 87.577 67.1191 87.1286 66.367L84.9046 62.6377C85.2602 61.5959 86.0625 58.9351 86.5168 54.9942C87.0511 50.3592 87.1808 42.9853 84.7641 34.1781C83.2167 28.5396 82.1447 23.2576 81.5674 18.4479C85.9618 19.9807 89.473 23.3905 91.1165 27.8016C91.5717 29.062 93.5235 28.3223 93.0418 27.0844C91.0676 21.7856 86.7096 17.7658 81.3033 16.21C80.9132 13.7629 79.801 11.5566 78.1742 9.82324L78.2025 9.82981C82.7643 10.8845 86.9998 13.1142 90.4513 16.2776C93.9029 19.441 96.492 23.4668 97.9392 27.9196L101.028 37.423C101.222 38.0198 101.122 38.6533 100.753 39.1611C100.384 39.6689 99.8125 39.96 99.185 39.96C98.3798 39.96 97.65 39.453 97.3691 38.6986L94.3085 30.4835C94.1103 29.9518 93.5183 29.6815 92.9873 29.8794C92.4556 30.0775 92.1851 30.6691 92.3832 31.2005L95.4438 39.4155C96.0228 40.9699 97.5263 42.0141 99.185 42.0141C100.478 42.0141 101.655 41.4142 102.415 40.3683C103.174 39.3228 103.381 38.0177 102.982 36.7881V36.7881Z" fill="white"/>
<path d="M68.5222 50.8917C71.0057 50.8917 73.0261 48.8713 73.0261 46.3878V23.4679C73.0261 20.9843 71.0057 18.9639 68.5222 18.9639C66.0387 18.9639 64.0183 20.9843 64.0183 23.4679V46.3878C64.0182 48.8713 66.0387 50.8917 68.5222 50.8917V50.8917ZM68.5222 21.0146C69.8749 21.0146 70.9754 22.1152 70.9754 23.4679V46.3878C70.9754 47.7405 69.8748 48.8409 68.5222 48.8409C67.1695 48.8409 66.0691 47.7404 66.0691 46.3878V45.3031H67.7588C68.3252 45.3031 68.7842 44.8441 68.7842 44.2777C68.7842 43.7113 68.3252 43.2523 67.7588 43.2523H66.0691V39.5219H67.7588C68.3252 39.5219 68.7842 39.063 68.7842 38.4966C68.7842 37.9301 68.3252 37.4712 67.7588 37.4712H66.0691V33.7408H67.7588C68.3252 33.7408 68.7842 33.2818 68.7842 32.7154C68.7842 32.149 68.3252 31.69 67.7588 31.69H66.0691V27.9597H67.7588C68.3252 27.9597 68.7842 27.5007 68.7842 26.9343C68.7842 26.3679 68.3252 25.9089 67.7588 25.9089H66.0691V23.4679C66.069 22.1152 67.1695 21.0146 68.5222 21.0146V21.0146Z" fill="white"/>
<path d="M8.9834 111H1.82031V98.1504H8.9834V99.4775H3.31445V103.617H8.64062V104.936H3.31445V109.664H8.9834V111ZM13.0791 111H11.6201V97.3242H13.0791V111ZM20.2422 111.176C18.8184 111.176 17.6934 110.742 16.8672 109.875C16.0469 109.008 15.6367 107.804 15.6367 106.263C15.6367 104.71 16.0176 103.477 16.7793 102.562C17.5469 101.648 18.5752 101.191 19.8643 101.191C21.0713 101.191 22.0264 101.59 22.7295 102.387C23.4326 103.178 23.7842 104.224 23.7842 105.524V106.447H17.1484C17.1777 107.578 17.4619 108.437 18.001 109.022C18.5459 109.608 19.3105 109.901 20.2949 109.901C21.332 109.901 22.3574 109.685 23.3711 109.251V110.552C22.8555 110.774 22.3662 110.933 21.9033 111.026C21.4463 111.126 20.8926 111.176 20.2422 111.176ZM19.8467 102.413C19.0732 102.413 18.4551 102.665 17.9922 103.169C17.5352 103.673 17.2656 104.37 17.1836 105.261H22.2197C22.2197 104.341 22.0146 103.638 21.6045 103.151C21.1943 102.659 20.6084 102.413 19.8467 102.413ZM30.1299 111.176C28.7354 111.176 27.6543 110.748 26.8867 109.893C26.125 109.031 25.7441 107.815 25.7441 106.245C25.7441 104.634 26.1309 103.389 26.9043 102.51C27.6836 101.631 28.791 101.191 30.2266 101.191C30.6895 101.191 31.1523 101.241 31.6152 101.341C32.0781 101.44 32.4414 101.558 32.7051 101.692L32.2568 102.932C31.9346 102.803 31.583 102.697 31.2021 102.615C30.8213 102.527 30.4844 102.483 30.1914 102.483C28.2344 102.483 27.2559 103.731 27.2559 106.228C27.2559 107.411 27.4932 108.319 27.9678 108.952C28.4482 109.585 29.1572 109.901 30.0947 109.901C30.8975 109.901 31.7207 109.729 32.5645 109.383V110.675C31.9199 111.009 31.1084 111.176 30.1299 111.176ZM37.9697 109.972C38.2275 109.972 38.4766 109.954 38.7168 109.919C38.957 109.878 39.1475 109.837 39.2881 109.796V110.912C39.1299 110.988 38.8955 111.05 38.585 111.097C38.2803 111.149 38.0049 111.176 37.7588 111.176C35.8955 111.176 34.9639 110.194 34.9639 108.231V102.501H33.584V101.798L34.9639 101.191L35.5791 99.1348H36.4229V101.367H39.2178V102.501H36.4229V108.17C36.4229 108.75 36.5605 109.195 36.8359 109.506C37.1113 109.816 37.4893 109.972 37.9697 109.972ZM45.6162 101.191C46.0439 101.191 46.4277 101.227 46.7676 101.297L46.5654 102.65C46.167 102.562 45.8154 102.519 45.5107 102.519C44.7314 102.519 44.0635 102.835 43.5068 103.468C42.9561 104.101 42.6807 104.889 42.6807 105.832V111H41.2217V101.367H42.4258L42.5928 103.151H42.6631C43.0205 102.524 43.4512 102.041 43.9551 101.701C44.459 101.361 45.0127 101.191 45.6162 101.191ZM50.0283 111H48.5693V101.367H50.0283V111ZM48.4463 98.7568C48.4463 98.4229 48.5283 98.1797 48.6924 98.0273C48.8564 97.8691 49.0615 97.79 49.3076 97.79C49.542 97.79 49.7441 97.8691 49.9141 98.0273C50.084 98.1855 50.1689 98.4287 50.1689 98.7568C50.1689 99.085 50.084 99.3311 49.9141 99.4951C49.7441 99.6533 49.542 99.7324 49.3076 99.7324C49.0615 99.7324 48.8564 99.6533 48.6924 99.4951C48.5283 99.3311 48.4463 99.085 48.4463 98.7568ZM56.9717 111.176C55.5771 111.176 54.4961 110.748 53.7285 109.893C52.9668 109.031 52.5859 107.815 52.5859 106.245C52.5859 104.634 52.9727 103.389 53.7461 102.51C54.5254 101.631 55.6328 101.191 57.0684 101.191C57.5312 101.191 57.9941 101.241 58.457 101.341C58.9199 101.44 59.2832 101.558 59.5469 101.692L59.0986 102.932C58.7764 102.803 58.4248 102.697 58.0439 102.615C57.6631 102.527 57.3262 102.483 57.0332 102.483C55.0762 102.483 54.0977 103.731 54.0977 106.228C54.0977 107.411 54.335 108.319 54.8096 108.952C55.29 109.585 55.999 109.901 56.9365 109.901C57.7393 109.901 58.5625 109.729 59.4062 109.383V110.675C58.7617 111.009 57.9502 111.176 56.9717 111.176ZM69.4873 109.972C69.7451 109.972 69.9941 109.954 70.2344 109.919C70.4746 109.878 70.665 109.837 70.8057 109.796V110.912C70.6475 110.988 70.4131 111.05 70.1025 111.097C69.7979 111.149 69.5225 111.176 69.2764 111.176C67.4131 111.176 66.4814 110.194 66.4814 108.231V102.501H65.1016V101.798L66.4814 101.191L67.0967 99.1348H67.9404V101.367H70.7354V102.501H67.9404V108.17C67.9404 108.75 68.0781 109.195 68.3535 109.506C68.6289 109.816 69.0068 109.972 69.4873 109.972ZM76.8086 111.176C75.3848 111.176 74.2598 110.742 73.4336 109.875C72.6133 109.008 72.2031 107.804 72.2031 106.263C72.2031 104.71 72.584 103.477 73.3457 102.562C74.1133 101.648 75.1416 101.191 76.4307 101.191C77.6377 101.191 78.5928 101.59 79.2959 102.387C79.999 103.178 80.3506 104.224 80.3506 105.524V106.447H73.7148C73.7441 107.578 74.0283 108.437 74.5674 109.022C75.1123 109.608 75.877 109.901 76.8613 109.901C77.8984 109.901 78.9238 109.685 79.9375 109.251V110.552C79.4219 110.774 78.9326 110.933 78.4697 111.026C78.0127 111.126 77.459 111.176 76.8086 111.176ZM76.4131 102.413C75.6396 102.413 75.0215 102.665 74.5586 103.169C74.1016 103.673 73.832 104.37 73.75 105.261H78.7861C78.7861 104.341 78.5811 103.638 78.1709 103.151C77.7607 102.659 77.1748 102.413 76.4131 102.413ZM88.7705 111L88.4805 109.629H88.4102C87.9297 110.232 87.4492 110.643 86.9688 110.859C86.4941 111.07 85.8994 111.176 85.1846 111.176C84.2295 111.176 83.4795 110.93 82.9346 110.438C82.3955 109.945 82.126 109.245 82.126 108.337C82.126 106.392 83.6816 105.372 86.793 105.278L88.4277 105.226V104.628C88.4277 103.872 88.2637 103.315 87.9355 102.958C87.6133 102.595 87.0947 102.413 86.3799 102.413C85.5771 102.413 84.6689 102.659 83.6553 103.151L83.207 102.035C83.6816 101.777 84.2002 101.575 84.7627 101.429C85.3311 101.282 85.8994 101.209 86.4678 101.209C87.6162 101.209 88.4658 101.464 89.0166 101.974C89.5732 102.483 89.8516 103.301 89.8516 104.426V111H88.7705ZM85.4746 109.972C86.3828 109.972 87.0947 109.723 87.6104 109.225C88.1318 108.727 88.3926 108.029 88.3926 107.133V106.263L86.9336 106.324C85.7734 106.365 84.9355 106.547 84.4199 106.869C83.9102 107.186 83.6553 107.681 83.6553 108.354C83.6553 108.882 83.8135 109.283 84.1299 109.559C84.4521 109.834 84.9004 109.972 85.4746 109.972ZM98.9834 106.069C99.2354 105.712 99.6191 105.243 100.135 104.663L103.246 101.367H104.978L101.075 105.472L105.25 111H103.483L100.082 106.447L98.9834 107.396V111H97.542V97.3242H98.9834V104.575C98.9834 104.897 98.96 105.396 98.9131 106.069H98.9834ZM111.068 111.176C109.645 111.176 108.52 110.742 107.693 109.875C106.873 109.008 106.463 107.804 106.463 106.263C106.463 104.71 106.844 103.477 107.605 102.562C108.373 101.648 109.401 101.191 110.69 101.191C111.897 101.191 112.853 101.59 113.556 102.387C114.259 103.178 114.61 104.224 114.61 105.524V106.447H107.975C108.004 107.578 108.288 108.437 108.827 109.022C109.372 109.608 110.137 109.901 111.121 109.901C112.158 109.901 113.184 109.685 114.197 109.251V110.552C113.682 110.774 113.192 110.933 112.729 111.026C112.272 111.126 111.719 111.176 111.068 111.176ZM110.673 102.413C109.899 102.413 109.281 102.665 108.818 103.169C108.361 103.673 108.092 104.37 108.01 105.261H113.046C113.046 104.341 112.841 103.638 112.431 103.151C112.021 102.659 111.435 102.413 110.673 102.413ZM120.218 109.972C120.476 109.972 120.725 109.954 120.965 109.919C121.205 109.878 121.396 109.837 121.536 109.796V110.912C121.378 110.988 121.144 111.05 120.833 111.097C120.528 111.149 120.253 111.176 120.007 111.176C118.144 111.176 117.212 110.194 117.212 108.231V102.501H115.832V101.798L117.212 101.191L117.827 99.1348H118.671V101.367H121.466V102.501H118.671V108.17C118.671 108.75 118.809 109.195 119.084 109.506C119.359 109.816 119.737 109.972 120.218 109.972ZM126.581 109.972C126.839 109.972 127.088 109.954 127.328 109.919C127.568 109.878 127.759 109.837 127.899 109.796V110.912C127.741 110.988 127.507 111.05 127.196 111.097C126.892 111.149 126.616 111.176 126.37 111.176C124.507 111.176 123.575 110.194 123.575 108.231V102.501H122.195V101.798L123.575 101.191L124.19 99.1348H125.034V101.367H127.829V102.501H125.034V108.17C125.034 108.75 125.172 109.195 125.447 109.506C125.723 109.816 126.101 109.972 126.581 109.972ZM131.292 111H129.833V97.3242H131.292V111ZM138.455 111.176C137.031 111.176 135.906 110.742 135.08 109.875C134.26 109.008 133.85 107.804 133.85 106.263C133.85 104.71 134.23 103.477 134.992 102.562C135.76 101.648 136.788 101.191 138.077 101.191C139.284 101.191 140.239 101.59 140.942 102.387C141.646 103.178 141.997 104.224 141.997 105.524V106.447H135.361C135.391 107.578 135.675 108.437 136.214 109.022C136.759 109.608 137.523 109.901 138.508 109.901C139.545 109.901 140.57 109.685 141.584 109.251V110.552C141.068 110.774 140.579 110.933 140.116 111.026C139.659 111.126 139.105 111.176 138.455 111.176ZM138.06 102.413C137.286 102.413 136.668 102.665 136.205 103.169C135.748 103.673 135.479 104.37 135.396 105.261H140.433C140.433 104.341 140.228 103.638 139.817 103.151C139.407 102.659 138.821 102.413 138.06 102.413Z" fill="white"/>
</svg>
