<svg width="144" height="114" viewBox="0 0 144 114" fill="none" xmlns="http://www.w3.org/2000/svg">
<path d="M70.6252 70C61.7789 70 54.5835 62.8017 54.5835 53.9583C54.5835 49.1925 56.7506 44.6221 60.4168 41.5858V10.2083C60.4168 4.57917 64.996 0 70.6252 0C76.2543 0 80.8335 4.57917 80.8335 10.2083V41.5858C84.4997 44.6221 86.6668 49.1925 86.6668 53.9583C86.6668 62.8017 79.4714 70 70.6252 70ZM70.6252 2.91667C66.606 2.91667 63.3335 6.18917 63.3335 10.2083V42.2917C63.3335 42.7496 63.1177 43.1813 62.7531 43.4554C59.4631 45.9317 57.5002 49.8575 57.5002 53.9583C57.5002 61.1946 63.3889 67.0833 70.6252 67.0833C77.8614 67.0833 83.7502 61.1946 83.7502 53.9583C83.7502 49.8575 81.7872 45.9317 78.4972 43.4554C78.1327 43.1813 77.9168 42.7496 77.9168 42.2917V10.2083C77.9168 6.18917 74.6443 2.91667 70.6252 2.91667Z" fill="white"/>
<path d="M70.6252 61.2503C66.606 61.2503 63.3335 57.9807 63.3335 53.9587C63.3335 49.9366 66.606 46.667 70.6252 46.667C74.6443 46.667 77.9168 49.9366 77.9168 53.9587C77.9168 57.9807 74.6443 61.2503 70.6252 61.2503ZM70.6252 49.5837C68.2131 49.5837 66.2502 51.5466 66.2502 53.9587C66.2502 56.3707 68.2131 58.3336 70.6252 58.3336C73.0372 58.3336 75.0002 56.3707 75.0002 53.9587C75.0002 51.5466 73.0372 49.5837 70.6252 49.5837Z" fill="white"/>
<path d="M70.6248 49.583C69.8198 49.583 69.1665 48.9297 69.1665 48.1247V16.0413C69.1665 15.2363 69.8198 14.583 70.6248 14.583C71.4298 14.583 72.0832 15.2363 72.0832 16.0413V48.1247C72.0832 48.9297 71.4298 49.583 70.6248 49.583Z" fill="white"/>
<path d="M93.9582 11.6667H88.1248C87.3198 11.6667 86.6665 11.0133 86.6665 10.2083C86.6665 9.40333 87.3198 8.75 88.1248 8.75H93.9582C94.7632 8.75 95.4165 9.40333 95.4165 10.2083C95.4165 11.0133 94.7632 11.6667 93.9582 11.6667Z" fill="white"/>
<path d="M93.9582 23.3337H88.1248C87.3198 23.3337 86.6665 22.6803 86.6665 21.8753C86.6665 21.0703 87.3198 20.417 88.1248 20.417H93.9582C94.7632 20.417 95.4165 21.0703 95.4165 21.8753C95.4165 22.6803 94.7632 23.3337 93.9582 23.3337Z" fill="white"/>
<path d="M93.9582 34.9997H88.1248C87.3198 34.9997 86.6665 34.3463 86.6665 33.5413C86.6665 32.7363 87.3198 32.083 88.1248 32.083H93.9582C94.7632 32.083 95.4165 32.7363 95.4165 33.5413C95.4165 34.3463 94.7632 34.9997 93.9582 34.9997Z" fill="white"/>
<path d="M19.9336 109H18.4395V96.1504H25.6025V97.4775H19.9336V102.18H25.2598V103.507H19.9336V109ZM28.9775 109H27.5186V95.3242H28.9775V109ZM40.3857 104.175C40.3857 105.745 39.9902 106.973 39.1992 107.857C38.4082 108.736 37.3154 109.176 35.9209 109.176C35.0596 109.176 34.2949 108.974 33.627 108.569C32.959 108.165 32.4434 107.585 32.0801 106.829C31.7168 106.073 31.5352 105.188 31.5352 104.175C31.5352 102.604 31.9277 101.383 32.7129 100.51C33.498 99.6309 34.5879 99.1914 35.9824 99.1914C37.3301 99.1914 38.3994 99.6396 39.1904 100.536C39.9873 101.433 40.3857 102.646 40.3857 104.175ZM33.0469 104.175C33.0469 105.405 33.293 106.343 33.7852 106.987C34.2773 107.632 35.001 107.954 35.9561 107.954C36.9111 107.954 37.6348 107.635 38.127 106.996C38.625 106.352 38.874 105.411 38.874 104.175C38.874 102.95 38.625 102.021 38.127 101.389C37.6348 100.75 36.9053 100.431 35.9385 100.431C34.9834 100.431 34.2627 100.744 33.7764 101.371C33.29 101.998 33.0469 102.933 33.0469 104.175ZM51.2666 104.175C51.2666 105.745 50.8711 106.973 50.0801 107.857C49.2891 108.736 48.1963 109.176 46.8018 109.176C45.9404 109.176 45.1758 108.974 44.5078 108.569C43.8398 108.165 43.3242 107.585 42.9609 106.829C42.5977 106.073 42.416 105.188 42.416 104.175C42.416 102.604 42.8086 101.383 43.5938 100.51C44.3789 99.6309 45.4688 99.1914 46.8633 99.1914C48.2109 99.1914 49.2803 99.6396 50.0713 100.536C50.8682 101.433 51.2666 102.646 51.2666 104.175ZM43.9277 104.175C43.9277 105.405 44.1738 106.343 44.666 106.987C45.1582 107.632 45.8818 107.954 46.8369 107.954C47.792 107.954 48.5156 107.635 49.0078 106.996C49.5059 106.352 49.7549 105.411 49.7549 104.175C49.7549 102.95 49.5059 102.021 49.0078 101.389C48.5156 100.75 47.7861 100.431 46.8193 100.431C45.8643 100.431 45.1436 100.744 44.6572 101.371C44.1709 101.998 43.9277 102.933 43.9277 104.175ZM58.2275 99.1914C58.6553 99.1914 59.0391 99.2266 59.3789 99.2969L59.1768 100.65C58.7783 100.562 58.4268 100.519 58.1221 100.519C57.3428 100.519 56.6748 100.835 56.1182 101.468C55.5674 102.101 55.292 102.889 55.292 103.832V109H53.833V99.3672H55.0371L55.2041 101.151H55.2744C55.6318 100.524 56.0625 100.041 56.5664 99.7012C57.0703 99.3613 57.624 99.1914 58.2275 99.1914ZM72.4482 109V102.769C72.4482 101.983 72.2695 101.397 71.9121 101.011C71.5547 100.624 70.9951 100.431 70.2334 100.431C69.2197 100.431 68.4785 100.706 68.0098 101.257C67.5469 101.808 67.3154 102.71 67.3154 103.964V109H65.8564V95.3242H67.3154V99.4639C67.3154 99.9619 67.292 100.375 67.2451 100.703H67.333C67.6201 100.24 68.0273 99.877 68.5547 99.6133C69.0879 99.3438 69.6943 99.209 70.374 99.209C71.5518 99.209 72.4336 99.4902 73.0195 100.053C73.6113 100.609 73.9072 101.497 73.9072 102.716V109H72.4482ZM80.9824 109.176C79.5586 109.176 78.4336 108.742 77.6074 107.875C76.7871 107.008 76.377 105.804 76.377 104.263C76.377 102.71 76.7578 101.477 77.5195 100.562C78.2871 99.6484 79.3154 99.1914 80.6045 99.1914C81.8115 99.1914 82.7666 99.5898 83.4697 100.387C84.1729 101.178 84.5244 102.224 84.5244 103.524V104.447H77.8887C77.918 105.578 78.2021 106.437 78.7412 107.022C79.2861 107.608 80.0508 107.901 81.0352 107.901C82.0723 107.901 83.0977 107.685 84.1113 107.251V108.552C83.5957 108.774 83.1064 108.933 82.6436 109.026C82.1865 109.126 81.6328 109.176 80.9824 109.176ZM80.5869 100.413C79.8135 100.413 79.1953 100.665 78.7324 101.169C78.2754 101.673 78.0059 102.37 77.9238 103.261H82.96C82.96 102.341 82.7549 101.638 82.3447 101.151C81.9346 100.659 81.3486 100.413 80.5869 100.413ZM92.9443 109L92.6543 107.629H92.584C92.1035 108.232 91.623 108.643 91.1426 108.859C90.668 109.07 90.0732 109.176 89.3584 109.176C88.4033 109.176 87.6533 108.93 87.1084 108.438C86.5693 107.945 86.2998 107.245 86.2998 106.337C86.2998 104.392 87.8555 103.372 90.9668 103.278L92.6016 103.226V102.628C92.6016 101.872 92.4375 101.315 92.1094 100.958C91.7871 100.595 91.2686 100.413 90.5537 100.413C89.751 100.413 88.8428 100.659 87.8291 101.151L87.3809 100.035C87.8555 99.7773 88.374 99.5752 88.9365 99.4287C89.5049 99.2822 90.0732 99.209 90.6416 99.209C91.79 99.209 92.6396 99.4639 93.1904 99.9736C93.7471 100.483 94.0254 101.301 94.0254 102.426V109H92.9443ZM89.6484 107.972C90.5566 107.972 91.2686 107.723 91.7842 107.225C92.3057 106.727 92.5664 106.029 92.5664 105.133V104.263L91.1074 104.324C89.9473 104.365 89.1094 104.547 88.5938 104.869C88.084 105.186 87.8291 105.681 87.8291 106.354C87.8291 106.882 87.9873 107.283 88.3037 107.559C88.626 107.834 89.0742 107.972 89.6484 107.972ZM100.151 107.972C100.409 107.972 100.658 107.954 100.898 107.919C101.139 107.878 101.329 107.837 101.47 107.796V108.912C101.312 108.988 101.077 109.05 100.767 109.097C100.462 109.149 100.187 109.176 99.9404 109.176C98.0771 109.176 97.1455 108.194 97.1455 106.231V100.501H95.7656V99.7979L97.1455 99.1914L97.7607 97.1348H98.6045V99.3672H101.399V100.501H98.6045V106.17C98.6045 106.75 98.7422 107.195 99.0176 107.506C99.293 107.816 99.6709 107.972 100.151 107.972ZM104.862 109H103.403V99.3672H104.862V109ZM103.28 96.7568C103.28 96.4229 103.362 96.1797 103.526 96.0273C103.69 95.8691 103.896 95.79 104.142 95.79C104.376 95.79 104.578 95.8691 104.748 96.0273C104.918 96.1855 105.003 96.4287 105.003 96.7568C105.003 97.085 104.918 97.3311 104.748 97.4951C104.578 97.6533 104.376 97.7324 104.142 97.7324C103.896 97.7324 103.69 97.6533 103.526 97.4951C103.362 97.3311 103.28 97.085 103.28 96.7568ZM114.548 109V102.769C114.548 101.983 114.369 101.397 114.012 101.011C113.654 100.624 113.095 100.431 112.333 100.431C111.325 100.431 110.587 100.703 110.118 101.248C109.649 101.793 109.415 102.692 109.415 103.946V109H107.956V99.3672H109.143L109.38 100.686H109.45C109.749 100.211 110.168 99.8447 110.707 99.5869C111.246 99.3232 111.847 99.1914 112.509 99.1914C113.669 99.1914 114.542 99.4727 115.128 100.035C115.714 100.592 116.007 101.485 116.007 102.716V109H114.548ZM126.896 99.3672V100.29L125.112 100.501C125.276 100.706 125.423 100.976 125.552 101.31C125.681 101.638 125.745 102.01 125.745 102.426C125.745 103.369 125.423 104.122 124.778 104.685C124.134 105.247 123.249 105.528 122.124 105.528C121.837 105.528 121.567 105.505 121.315 105.458C120.694 105.786 120.384 106.199 120.384 106.697C120.384 106.961 120.492 107.157 120.709 107.286C120.926 107.409 121.298 107.471 121.825 107.471H123.53C124.573 107.471 125.373 107.69 125.93 108.13C126.492 108.569 126.773 109.208 126.773 110.046C126.773 111.112 126.346 111.924 125.49 112.48C124.635 113.043 123.387 113.324 121.746 113.324C120.486 113.324 119.514 113.09 118.828 112.621C118.148 112.152 117.809 111.49 117.809 110.635C117.809 110.049 117.996 109.542 118.371 109.114C118.746 108.687 119.273 108.396 119.953 108.244C119.707 108.133 119.499 107.96 119.329 107.726C119.165 107.491 119.083 107.219 119.083 106.908C119.083 106.557 119.177 106.249 119.364 105.985C119.552 105.722 119.848 105.467 120.252 105.221C119.754 105.016 119.347 104.667 119.03 104.175C118.72 103.683 118.564 103.12 118.564 102.487C118.564 101.433 118.881 100.621 119.514 100.053C120.146 99.4785 121.043 99.1914 122.203 99.1914C122.707 99.1914 123.161 99.25 123.565 99.3672H126.896ZM119.215 110.617C119.215 111.139 119.435 111.534 119.874 111.804C120.313 112.073 120.943 112.208 121.764 112.208C122.988 112.208 123.894 112.023 124.479 111.654C125.071 111.291 125.367 110.796 125.367 110.169C125.367 109.647 125.206 109.284 124.884 109.079C124.562 108.88 123.955 108.78 123.064 108.78H121.315C120.653 108.78 120.138 108.938 119.769 109.255C119.399 109.571 119.215 110.025 119.215 110.617ZM120.006 102.452C120.006 103.126 120.196 103.636 120.577 103.981C120.958 104.327 121.488 104.5 122.168 104.5C123.592 104.5 124.304 103.809 124.304 102.426C124.304 100.979 123.583 100.255 122.142 100.255C121.456 100.255 120.929 100.439 120.56 100.809C120.19 101.178 120.006 101.726 120.006 102.452Z" fill="white"/>
</svg>
