<svg width="144" height="109" viewBox="0 0 144 109" fill="none" xmlns="http://www.w3.org/2000/svg">
<g clip-path="url(#clip0_154_208)">
<path d="M90.1667 32.6667H89V30.3333H90.1667C92.0997 30.3333 93.6667 28.7664 93.6667 26.8333V6.78534C95.4856 6.14469 96.4409 4.15071 95.8001 2.33173C95.3071 0.932319 93.9837 -0.00276446 92.5 6.37573e-06H57.5C55.5715 -0.00363946 54.0053 1.55678 54.0016 3.48528C53.9987 4.96898 54.9339 6.29242 56.3333 6.78534V26.8333C56.3333 28.7664 57.9003 30.3333 59.8333 30.3333H61V32.6667H59.8333C56.6133 32.6705 54.0038 35.28 54 38.5C54 39.1443 54.5224 39.6667 55.1667 39.6667C55.1438 47.4628 59.7167 54.5402 66.8333 57.7232V68.8333C66.8333 69.4776 67.3557 70 68 70H82C82.6443 70 83.1667 69.4776 83.1667 68.8333V57.7232C90.2823 54.539 94.8548 47.4623 94.8333 39.6667C95.4776 39.6667 96 39.1443 96 38.5C95.9962 35.28 93.3867 32.6705 90.1667 32.6667ZM56.3333 3.50001C56.3333 2.85571 56.8557 2.33334 57.5 2.33334H92.5C93.1443 2.33334 93.6667 2.85571 93.6667 3.50001C93.6667 4.1443 93.1443 4.66667 92.5 4.66667H57.5C56.8557 4.66667 56.3333 4.1443 56.3333 3.50001ZM59.8333 28C59.189 28 58.6667 27.4776 58.6667 26.8333V7H91.3333V26.8333C91.3333 27.4776 90.811 28 90.1667 28H59.8333ZM86.6667 30.3333V32.6667H63.3333V30.3333H86.6667ZM69.1667 67.6666V58.6273L69.2752 58.6565C69.3918 58.6915 69.5085 58.7183 69.6252 58.751C70.0522 58.8723 70.4834 58.9789 70.919 59.0707C71.1278 59.115 71.3378 59.1511 71.5478 59.1873C71.9083 59.2503 72.2712 59.304 72.6363 59.3448C72.858 59.3717 73.0773 59.3997 73.3013 59.4183C73.7766 59.458 74.2529 59.4806 74.7305 59.486C74.8192 59.486 74.9055 59.4988 74.9942 59.4988C75.0828 59.4988 75.1703 59.4871 75.259 59.486C75.7366 59.4806 76.2126 59.458 76.687 59.4183C76.911 59.3997 77.1327 59.3705 77.3555 59.3448C77.7172 59.3017 78.0765 59.2503 78.4347 59.1885C78.6482 59.1512 78.8617 59.1127 79.074 59.0718C79.4987 58.9843 79.9175 58.8782 80.3328 58.7615C80.4623 58.7253 80.5942 58.6962 80.7237 58.6577C80.7575 58.6472 80.7937 58.6402 80.8275 58.6297L80.8333 67.6666H69.1667ZM81.5567 55.8892C78.4164 57.1554 74.9771 57.4869 71.6528 56.8435C70.5515 56.6316 69.4741 56.3108 68.4363 55.8857C61.8116 53.2313 57.4772 46.8033 57.5 39.6667H92.5C92.5222 46.8061 88.1848 53.2359 81.5567 55.8892ZM56.5328 37.3333C57.0291 35.936 58.3505 35.0017 59.8333 35H90.1667C91.6495 35.0017 92.9709 35.936 93.4672 37.3333H56.5328Z" fill="white"/>
<path d="M70.3333 10.5003H66.6186C65.9744 8.67782 63.9745 7.72275 62.1522 8.36719C60.3299 9.01163 59.3747 11.0111 60.019 12.8336C60.6632 14.6561 62.6631 15.6112 64.4854 14.9667C65.4822 14.6144 66.2662 13.8303 66.6185 12.8336H70.3333C70.9776 12.8336 71.5 12.3113 71.5 11.667C71.5 11.0227 70.9776 10.5003 70.3333 10.5003ZM63.3333 12.8336C62.689 12.8336 62.1666 12.3113 62.1666 11.667C62.1666 11.0227 62.689 10.5003 63.3333 10.5003C63.9776 10.5003 64.5 11.0227 64.5 11.667C64.5 12.3113 63.9776 12.8336 63.3333 12.8336Z" fill="white"/>
</g>
<path d="M12.1992 104H10.7051V91.1504H17.8682V92.4775H12.1992V97.1797H17.5254V98.5068H12.1992V104ZM21.2432 104H19.7842V90.3242H21.2432V104ZM25.708 94.3672V100.616C25.708 101.401 25.8867 101.987 26.2441 102.374C26.6016 102.761 27.1611 102.954 27.9229 102.954C28.9307 102.954 29.666 102.679 30.1289 102.128C30.5977 101.577 30.832 100.678 30.832 99.4297V94.3672H32.291V104H31.0869L30.876 102.708H30.7969C30.498 103.183 30.082 103.546 29.5488 103.798C29.0215 104.05 28.418 104.176 27.7383 104.176C26.5664 104.176 25.6875 103.897 25.1016 103.341C24.5215 102.784 24.2314 101.894 24.2314 100.669V94.3672H25.708ZM41.6074 101.372C41.6074 102.269 41.2734 102.96 40.6055 103.446C39.9375 103.933 39 104.176 37.793 104.176C36.5156 104.176 35.5195 103.974 34.8047 103.569V102.216C35.2676 102.45 35.7627 102.635 36.29 102.77C36.8232 102.904 37.3359 102.972 37.8281 102.972C38.5898 102.972 39.1758 102.852 39.5859 102.611C39.9961 102.365 40.2012 101.993 40.2012 101.495C40.2012 101.12 40.0371 100.801 39.709 100.537C39.3867 100.268 38.7539 99.9512 37.8105 99.5879C36.9141 99.2539 36.2754 98.9639 35.8945 98.7178C35.5195 98.4658 35.2383 98.1816 35.0508 97.8652C34.8691 97.5488 34.7783 97.1709 34.7783 96.7314C34.7783 95.9463 35.0977 95.3281 35.7363 94.877C36.375 94.4199 37.251 94.1914 38.3643 94.1914C39.4014 94.1914 40.415 94.4023 41.4053 94.8242L40.8867 96.0107C39.9199 95.6123 39.0439 95.4131 38.2588 95.4131C37.5674 95.4131 37.0459 95.5215 36.6943 95.7383C36.3428 95.9551 36.167 96.2539 36.167 96.6348C36.167 96.8926 36.2314 97.1123 36.3604 97.2939C36.4951 97.4756 36.709 97.6484 37.002 97.8125C37.2949 97.9766 37.8574 98.2139 38.6895 98.5244C39.832 98.9404 40.6025 99.3594 41.001 99.7812C41.4053 100.203 41.6074 100.733 41.6074 101.372ZM50.5811 104V97.7686C50.5811 96.9834 50.4023 96.3975 50.0449 96.0107C49.6875 95.624 49.1279 95.4307 48.3662 95.4307C47.3525 95.4307 46.6113 95.7061 46.1426 96.2568C45.6797 96.8076 45.4482 97.71 45.4482 98.9639V104H43.9893V90.3242H45.4482V94.4639C45.4482 94.9619 45.4248 95.375 45.3779 95.7031H45.4658C45.7529 95.2402 46.1602 94.877 46.6875 94.6133C47.2207 94.3438 47.8271 94.209 48.5068 94.209C49.6846 94.209 50.5664 94.4902 51.1523 95.0527C51.7441 95.6094 52.04 96.4971 52.04 97.7158V104H50.5811ZM56.5049 104H55.0459V94.3672H56.5049V104ZM54.9229 91.7568C54.9229 91.4229 55.0049 91.1797 55.1689 91.0273C55.333 90.8691 55.5381 90.79 55.7842 90.79C56.0186 90.79 56.2207 90.8691 56.3906 91.0273C56.5605 91.1855 56.6455 91.4287 56.6455 91.7568C56.6455 92.085 56.5605 92.3311 56.3906 92.4951C56.2207 92.6533 56.0186 92.7324 55.7842 92.7324C55.5381 92.7324 55.333 92.6533 55.1689 92.4951C55.0049 92.3311 54.9229 92.085 54.9229 91.7568ZM66.1904 104V97.7686C66.1904 96.9834 66.0117 96.3975 65.6543 96.0107C65.2969 95.624 64.7373 95.4307 63.9756 95.4307C62.9678 95.4307 62.2295 95.7031 61.7607 96.248C61.292 96.793 61.0576 97.6924 61.0576 98.9463V104H59.5986V94.3672H60.7852L61.0225 95.6855H61.0928C61.3916 95.2109 61.8105 94.8447 62.3496 94.5869C62.8887 94.3232 63.4893 94.1914 64.1514 94.1914C65.3115 94.1914 66.1846 94.4727 66.7705 95.0352C67.3564 95.5918 67.6494 96.4854 67.6494 97.7158V104H66.1904ZM78.5391 94.3672V95.29L76.7549 95.501C76.9189 95.7061 77.0654 95.9756 77.1943 96.3096C77.3232 96.6377 77.3877 97.0098 77.3877 97.4258C77.3877 98.3691 77.0654 99.1221 76.4209 99.6846C75.7764 100.247 74.8916 100.528 73.7666 100.528C73.4795 100.528 73.21 100.505 72.958 100.458C72.3369 100.786 72.0264 101.199 72.0264 101.697C72.0264 101.961 72.1348 102.157 72.3516 102.286C72.5684 102.409 72.9404 102.471 73.4678 102.471H75.1729C76.2158 102.471 77.0156 102.69 77.5723 103.13C78.1348 103.569 78.416 104.208 78.416 105.046C78.416 106.112 77.9883 106.924 77.1328 107.48C76.2773 108.043 75.0293 108.324 73.3887 108.324C72.1289 108.324 71.1562 108.09 70.4707 107.621C69.791 107.152 69.4512 106.49 69.4512 105.635C69.4512 105.049 69.6387 104.542 70.0137 104.114C70.3887 103.687 70.916 103.396 71.5957 103.244C71.3496 103.133 71.1416 102.96 70.9717 102.726C70.8076 102.491 70.7256 102.219 70.7256 101.908C70.7256 101.557 70.8193 101.249 71.0068 100.985C71.1943 100.722 71.4902 100.467 71.8945 100.221C71.3965 100.016 70.9893 99.667 70.6729 99.1748C70.3623 98.6826 70.207 98.1201 70.207 97.4873C70.207 96.4326 70.5234 95.6211 71.1562 95.0527C71.7891 94.4785 72.6855 94.1914 73.8457 94.1914C74.3496 94.1914 74.8037 94.25 75.208 94.3672H78.5391ZM70.8574 105.617C70.8574 106.139 71.0771 106.534 71.5166 106.804C71.9561 107.073 72.5859 107.208 73.4062 107.208C74.6309 107.208 75.5361 107.023 76.1221 106.654C76.7139 106.291 77.0098 105.796 77.0098 105.169C77.0098 104.647 76.8486 104.284 76.5264 104.079C76.2041 103.88 75.5977 103.78 74.707 103.78H72.958C72.2959 103.78 71.7803 103.938 71.4111 104.255C71.042 104.571 70.8574 105.025 70.8574 105.617ZM71.6484 97.4521C71.6484 98.126 71.8389 98.6357 72.2197 98.9814C72.6006 99.3271 73.1309 99.5 73.8105 99.5C75.2344 99.5 75.9463 98.8086 75.9463 97.4258C75.9463 95.9785 75.2256 95.2549 73.7842 95.2549C73.0986 95.2549 72.5713 95.4395 72.2021 95.8086C71.833 96.1777 71.6484 96.7256 71.6484 97.4521ZM88.3037 102.972C88.5615 102.972 88.8105 102.954 89.0508 102.919C89.291 102.878 89.4814 102.837 89.6221 102.796V103.912C89.4639 103.988 89.2295 104.05 88.9189 104.097C88.6143 104.149 88.3389 104.176 88.0928 104.176C86.2295 104.176 85.2979 103.194 85.2979 101.231V95.501H83.918V94.7979L85.2979 94.1914L85.9131 92.1348H86.7568V94.3672H89.5518V95.501H86.7568V101.17C86.7568 101.75 86.8945 102.195 87.1699 102.506C87.4453 102.816 87.8232 102.972 88.3037 102.972ZM99.8701 99.1748C99.8701 100.745 99.4746 101.973 98.6836 102.857C97.8926 103.736 96.7998 104.176 95.4053 104.176C94.5439 104.176 93.7793 103.974 93.1113 103.569C92.4434 103.165 91.9277 102.585 91.5645 101.829C91.2012 101.073 91.0195 100.188 91.0195 99.1748C91.0195 97.6045 91.4121 96.3828 92.1973 95.5098C92.9824 94.6309 94.0723 94.1914 95.4668 94.1914C96.8145 94.1914 97.8838 94.6396 98.6748 95.5361C99.4717 96.4326 99.8701 97.6455 99.8701 99.1748ZM92.5312 99.1748C92.5312 100.405 92.7773 101.343 93.2695 101.987C93.7617 102.632 94.4854 102.954 95.4404 102.954C96.3955 102.954 97.1191 102.635 97.6113 101.996C98.1094 101.352 98.3584 100.411 98.3584 99.1748C98.3584 97.9502 98.1094 97.0215 97.6113 96.3887C97.1191 95.75 96.3896 95.4307 95.4229 95.4307C94.4678 95.4307 93.7471 95.7441 93.2607 96.3711C92.7744 96.998 92.5312 97.9326 92.5312 99.1748ZM103.896 104H102.437V94.3672H103.896V104ZM102.313 91.7568C102.313 91.4229 102.396 91.1797 102.56 91.0273C102.724 90.8691 102.929 90.79 103.175 90.79C103.409 90.79 103.611 90.8691 103.781 91.0273C103.951 91.1855 104.036 91.4287 104.036 91.7568C104.036 92.085 103.951 92.3311 103.781 92.4951C103.611 92.6533 103.409 92.7324 103.175 92.7324C102.929 92.7324 102.724 92.6533 102.56 92.4951C102.396 92.3311 102.313 92.085 102.313 91.7568ZM108.448 104H106.989V90.3242H108.448V104ZM115.611 104.176C114.188 104.176 113.062 103.742 112.236 102.875C111.416 102.008 111.006 100.804 111.006 99.2627C111.006 97.71 111.387 96.4766 112.148 95.5625C112.916 94.6484 113.944 94.1914 115.233 94.1914C116.44 94.1914 117.396 94.5898 118.099 95.3867C118.802 96.1777 119.153 97.2236 119.153 98.5244V99.4473H112.518C112.547 100.578 112.831 101.437 113.37 102.022C113.915 102.608 114.68 102.901 115.664 102.901C116.701 102.901 117.727 102.685 118.74 102.251V103.552C118.225 103.774 117.735 103.933 117.272 104.026C116.815 104.126 116.262 104.176 115.611 104.176ZM115.216 95.4131C114.442 95.4131 113.824 95.665 113.361 96.1689C112.904 96.6729 112.635 97.3701 112.553 98.2607H117.589C117.589 97.3408 117.384 96.6377 116.974 96.1514C116.563 95.6592 115.978 95.4131 115.216 95.4131ZM124.761 102.972C125.019 102.972 125.268 102.954 125.508 102.919C125.748 102.878 125.938 102.837 126.079 102.796V103.912C125.921 103.988 125.687 104.05 125.376 104.097C125.071 104.149 124.796 104.176 124.55 104.176C122.687 104.176 121.755 103.194 121.755 101.231V95.501H120.375V94.7979L121.755 94.1914L122.37 92.1348H123.214V94.3672H126.009V95.501H123.214V101.17C123.214 101.75 123.352 102.195 123.627 102.506C123.902 102.816 124.28 102.972 124.761 102.972ZM134.227 101.372C134.227 102.269 133.893 102.96 133.225 103.446C132.557 103.933 131.619 104.176 130.412 104.176C129.135 104.176 128.139 103.974 127.424 103.569V102.216C127.887 102.45 128.382 102.635 128.909 102.77C129.442 102.904 129.955 102.972 130.447 102.972C131.209 102.972 131.795 102.852 132.205 102.611C132.615 102.365 132.82 101.993 132.82 101.495C132.82 101.12 132.656 100.801 132.328 100.537C132.006 100.268 131.373 99.9512 130.43 99.5879C129.533 99.2539 128.895 98.9639 128.514 98.7178C128.139 98.4658 127.857 98.1816 127.67 97.8652C127.488 97.5488 127.397 97.1709 127.397 96.7314C127.397 95.9463 127.717 95.3281 128.355 94.877C128.994 94.4199 129.87 94.1914 130.983 94.1914C132.021 94.1914 133.034 94.4023 134.024 94.8242L133.506 96.0107C132.539 95.6123 131.663 95.4131 130.878 95.4131C130.187 95.4131 129.665 95.5215 129.313 95.7383C128.962 95.9551 128.786 96.2539 128.786 96.6348C128.786 96.8926 128.851 97.1123 128.979 97.2939C129.114 97.4756 129.328 97.6484 129.621 97.8125C129.914 97.9766 130.477 98.2139 131.309 98.5244C132.451 98.9404 133.222 99.3594 133.62 99.7812C134.024 100.203 134.227 100.733 134.227 101.372Z" fill="white"/>
<defs>
<clipPath id="clip0_154_208">
<rect width="70" height="70" fill="white" transform="translate(40)"/>
</clipPath>
</defs>
</svg>
