<svg width="144" height="133" viewBox="0 0 144 133" fill="none" xmlns="http://www.w3.org/2000/svg">
<g clip-path="url(#clip0_154_230)">
<path d="M107 19.8327C106.995 15.3245 103.342 11.6712 98.8336 11.6661H63.8336C63.1172 11.6635 62.4041 11.7613 61.7149 11.9566C61.2786 12.0616 49.7542 16.4062 42.9234 18.9857H42.9141C41.5827 19.3573 40.3712 20.0694 39.3989 21.0519C37.8544 22.5778 36.9898 24.6616 37.0002 26.8327C37.0022 29.703 38.512 32.3611 40.9762 33.8327C38.513 35.3054 37.0036 37.9629 37.0002 40.8327C37.0048 43.7038 38.5166 46.3615 40.9821 47.8327C37.8269 49.7132 36.3174 53.4702 37.2944 57.0109C38.2713 60.5516 41.4939 63.003 45.1669 62.9994H80.1669C81.3739 62.9984 82.5654 62.7273 83.6541 62.2061C83.6626 62.2066 83.6712 62.2066 83.6797 62.2061L102.45 55.1559C105.131 53.8353 106.874 51.1532 106.991 48.1672C107.109 45.1813 105.582 42.3705 103.014 40.8432C103.596 40.5058 104.129 40.0905 104.599 39.6089C106.143 38.0845 107.009 36.0026 107 33.8327C106.99 30.9659 105.481 28.3134 103.022 26.8397C103.602 26.5025 104.133 26.0885 104.602 25.6089C106.145 24.0841 107.009 22.0022 107 19.8327ZM62.3577 14.1989C62.8381 14.0646 63.3348 13.9975 63.8336 13.9994H98.8336C102.054 14.0033 104.663 16.6127 104.667 19.8327C104.674 21.381 104.057 22.8668 102.955 23.9546C102.559 24.3671 102.095 24.7088 101.583 24.9649C101.52 24.9987 101.467 25.0302 101.407 25.0606C99.8334 25.6439 97.0626 26.6846 92.7681 28.2969L87.5834 30.2441C88.7489 27.7163 88.5457 24.7689 87.0443 22.425C85.5429 20.0811 82.9504 18.6642 80.1669 18.6661H50.3842C56.1931 16.4786 61.8829 14.3494 62.3577 14.1989V14.1989ZM39.3336 26.8327C39.3269 25.2817 39.946 23.7936 41.0509 22.7051C41.7561 21.9891 42.6404 21.4754 43.6117 21.2176C43.6409 21.2082 43.6747 21.1977 43.7086 21.1849C44.1846 21.0602 44.6748 20.9978 45.1669 20.9994H80.1669C83.387 21.0033 85.9964 23.6127 86.0002 26.8327C85.9917 29.0154 84.7737 31.0134 82.8374 32.0209C82.8032 32.034 82.7697 32.0488 82.7371 32.0652C81.9393 32.4643 81.0589 32.6701 80.1669 32.6661H45.1669C41.9468 32.6622 39.3374 30.0528 39.3336 26.8327V26.8327ZM39.3336 40.8327C39.3393 37.6135 41.9476 35.0052 45.1669 34.9994H80.1669C83.387 35.0033 85.9964 37.6127 86.0002 40.8327C85.9917 43.0154 84.7737 45.0134 82.8374 46.0209C82.8032 46.034 82.7697 46.0488 82.7371 46.0652C81.9393 46.4643 81.0589 46.6701 80.1669 46.6661H45.1669C41.9468 46.6622 39.3374 44.0528 39.3336 40.8327ZM45.1669 60.6661C41.9452 60.6661 39.3336 58.0544 39.3336 54.8327C39.3336 51.6111 41.9452 48.9994 45.1669 48.9994H80.1669C83.3886 48.9994 86.0002 51.6111 86.0002 54.8327C86.0002 58.0544 83.3886 60.6661 80.1669 60.6661H45.1669ZM104.667 47.8327C104.674 49.3807 104.057 50.8663 102.957 51.9546C102.537 52.3793 102.055 52.7373 101.527 53.0162L87.5752 58.2487C89.3138 54.5125 87.9794 50.0664 84.4707 47.9051L99.8707 42.1277C102.638 42.6214 104.656 45.0223 104.667 47.8327V47.8327ZM104.667 33.8327C104.674 35.381 104.057 36.8668 102.955 37.9546C102.559 38.3671 102.095 38.7088 101.583 38.9649C101.519 38.9999 101.459 39.0314 101.405 39.0617L87.5822 44.2452C89.3101 40.5077 87.9743 36.0684 84.4707 33.9051L93.5836 30.4821C96.2459 29.4822 98.3144 28.7052 99.8836 28.1184C102.645 28.6238 104.655 31.025 104.667 33.8327V33.8327Z" fill="white"/>
<path d="M82.5004 26.8327C82.5004 26.1884 81.9781 25.666 81.3337 25.666H44.0004C43.3561 25.666 42.8337 26.1884 42.8337 26.8327C42.8337 27.477 43.3561 27.9994 44.0004 27.9994H81.3337C81.9781 27.9994 82.5004 27.477 82.5004 26.8327Z" fill="white"/>
<path d="M82.5004 40.8327C82.5004 40.1883 81.9781 39.666 81.3337 39.666H44.0004C43.3561 39.666 42.8337 40.1883 42.8337 40.8327C42.8337 41.477 43.3561 41.9993 44.0004 41.9993H81.3337C81.9781 41.9993 82.5004 41.477 82.5004 40.8327Z" fill="white"/>
<path d="M81.3337 53.666H44.0004C43.3561 53.666 42.8337 54.1883 42.8337 54.8327C42.8337 55.477 43.3561 55.9993 44.0004 55.9993H81.3337C81.9781 55.9993 82.5004 55.477 82.5004 54.8327C82.5004 54.1883 81.9781 53.666 81.3337 53.666Z" fill="white"/>
<path d="M48.6669 2.33301C48.0226 2.33301 47.5002 2.85534 47.5002 3.49967V5.83301C47.5002 6.47734 48.0226 6.99967 48.6669 6.99967C49.3112 6.99967 49.8336 6.47734 49.8336 5.83301V3.49967C49.8336 2.85534 49.3112 2.33301 48.6669 2.33301Z" fill="white"/>
<path d="M47.5002 12.833C47.5002 13.4774 48.0226 13.9997 48.6669 13.9997C49.3112 13.9997 49.8336 13.4774 49.8336 12.833V10.4997C49.8336 9.85534 49.3112 9.33301 48.6669 9.33301C48.0226 9.33301 47.5002 9.85534 47.5002 10.4997V12.833Z" fill="white"/>
<path d="M46.3337 7H44.0004C43.3561 7 42.8337 7.52234 42.8337 8.16667C42.8337 8.81101 43.3561 9.33334 44.0004 9.33334H46.3337C46.9781 9.33334 47.5004 8.81101 47.5004 8.16667C47.5004 7.52234 46.9781 7 46.3337 7Z" fill="white"/>
<path d="M51.0004 9.33334H53.3337C53.9781 9.33334 54.5004 8.81101 54.5004 8.16667C54.5004 7.52234 53.9781 7 53.3337 7H51.0004C50.3561 7 49.8337 7.52234 49.8337 8.16667C49.8337 8.81101 50.3561 9.33334 51.0004 9.33334Z" fill="white"/>
<path d="M104.908 63.9252C104.451 63.483 103.723 63.4893 103.273 63.9394C102.823 64.3894 102.817 65.1171 103.259 65.5748L105.009 67.3248C105.466 67.767 106.194 67.7606 106.644 67.3106C107.094 66.8606 107.1 66.1329 106.658 65.6752L104.908 63.9252Z" fill="white"/>
<path d="M99.7589 62.0748C100.217 62.517 100.944 62.5106 101.394 62.0606C101.844 61.6106 101.851 60.8829 101.409 60.4252L99.6586 58.6752C99.2008 58.233 98.4731 58.2393 98.0231 58.6894C97.5731 59.1394 97.5668 59.867 98.0089 60.3248L99.7589 62.0748Z" fill="white"/>
<path d="M98.0086 67.3248C98.4642 67.7803 99.2027 67.7803 99.6582 67.3248L101.408 65.5748C101.85 65.117 101.844 64.3894 101.394 63.9394C100.944 63.4893 100.216 63.483 99.7586 63.9252L98.0086 65.6752C97.5531 66.1307 97.5531 66.8692 98.0086 67.3248Z" fill="white"/>
<path d="M105.009 58.6752L103.259 60.4252C102.955 60.7181 102.834 61.1518 102.94 61.5597C103.047 61.9676 103.366 62.2862 103.774 62.393C104.182 62.4997 104.615 62.3781 104.908 62.0748L106.658 60.3248C107.1 59.867 107.094 59.1394 106.644 58.6894C106.194 58.2393 105.466 58.233 105.009 58.6752V58.6752Z" fill="white"/>
</g>
<path d="M30.1904 91.1504H33.8203C35.5254 91.1504 36.7588 91.4053 37.5205 91.915C38.2822 92.4248 38.6631 93.2305 38.6631 94.332C38.6631 95.0938 38.4492 95.7236 38.0215 96.2217C37.5996 96.7139 36.9814 97.0332 36.167 97.1797V97.2676C38.1182 97.6016 39.0938 98.627 39.0938 100.344C39.0938 101.492 38.7041 102.389 37.9248 103.033C37.1514 103.678 36.0674 104 34.6729 104H30.1904V91.1504ZM31.6846 96.6523H34.1455C35.2002 96.6523 35.959 96.4883 36.4219 96.1602C36.8848 95.8262 37.1162 95.2666 37.1162 94.4814C37.1162 93.7607 36.8584 93.2422 36.3428 92.9258C35.8271 92.6035 35.0068 92.4424 33.8818 92.4424H31.6846V96.6523ZM31.6846 97.918V102.726H34.3652C35.4023 102.726 36.1816 102.526 36.7031 102.128C37.2305 101.724 37.4941 101.094 37.4941 100.238C37.4941 99.4414 37.2246 98.8555 36.6855 98.4805C36.1523 98.1055 35.3379 97.918 34.2422 97.918H31.6846ZM45.7119 104.176C44.2881 104.176 43.1631 103.742 42.3369 102.875C41.5166 102.008 41.1064 100.804 41.1064 99.2627C41.1064 97.71 41.4873 96.4766 42.249 95.5625C43.0166 94.6484 44.0449 94.1914 45.334 94.1914C46.541 94.1914 47.4961 94.5898 48.1992 95.3867C48.9023 96.1777 49.2539 97.2236 49.2539 98.5244V99.4473H42.6182C42.6475 100.578 42.9316 101.437 43.4707 102.022C44.0156 102.608 44.7803 102.901 45.7646 102.901C46.8018 102.901 47.8271 102.685 48.8408 102.251V103.552C48.3252 103.774 47.8359 103.933 47.373 104.026C46.916 104.126 46.3623 104.176 45.7119 104.176ZM45.3164 95.4131C44.543 95.4131 43.9248 95.665 43.4619 96.1689C43.0049 96.6729 42.7354 97.3701 42.6533 98.2607H47.6895C47.6895 97.3408 47.4844 96.6377 47.0742 96.1514C46.6641 95.6592 46.0781 95.4131 45.3164 95.4131ZM58.3066 102.708H58.2275C57.5537 103.687 56.5459 104.176 55.2041 104.176C53.9443 104.176 52.9629 103.745 52.2598 102.884C51.5625 102.022 51.2139 100.798 51.2139 99.21C51.2139 97.6221 51.5654 96.3887 52.2686 95.5098C52.9717 94.6309 53.9502 94.1914 55.2041 94.1914C56.5107 94.1914 57.5127 94.666 58.21 95.6152H58.3242L58.2627 94.9209L58.2275 94.2441V90.3242H59.6865V104H58.5L58.3066 102.708ZM55.3887 102.954C56.3848 102.954 57.1055 102.685 57.5508 102.146C58.002 101.601 58.2275 100.725 58.2275 99.5176V99.21C58.2275 97.8447 57.999 96.8721 57.542 96.292C57.0908 95.7061 56.3672 95.4131 55.3711 95.4131C54.5156 95.4131 53.8594 95.7471 53.4023 96.415C52.9512 97.0771 52.7256 98.0146 52.7256 99.2275C52.7256 100.458 52.9512 101.387 53.4023 102.014C53.8535 102.641 54.5156 102.954 55.3887 102.954ZM69.3457 102.708H69.2666C68.5928 103.687 67.585 104.176 66.2432 104.176C64.9834 104.176 64.002 103.745 63.2988 102.884C62.6016 102.022 62.2529 100.798 62.2529 99.21C62.2529 97.6221 62.6045 96.3887 63.3076 95.5098C64.0107 94.6309 64.9893 94.1914 66.2432 94.1914C67.5498 94.1914 68.5518 94.666 69.249 95.6152H69.3633L69.3018 94.9209L69.2666 94.2441V90.3242H70.7256V104H69.5391L69.3457 102.708ZM66.4277 102.954C67.4238 102.954 68.1445 102.685 68.5898 102.146C69.041 101.601 69.2666 100.725 69.2666 99.5176V99.21C69.2666 97.8447 69.0381 96.8721 68.5811 96.292C68.1299 95.7061 67.4062 95.4131 66.4102 95.4131C65.5547 95.4131 64.8984 95.7471 64.4414 96.415C63.9902 97.0771 63.7646 98.0146 63.7646 99.2275C63.7646 100.458 63.9902 101.387 64.4414 102.014C64.8926 102.641 65.5547 102.954 66.4277 102.954ZM75.2871 104H73.8281V94.3672H75.2871V104ZM73.7051 91.7568C73.7051 91.4229 73.7871 91.1797 73.9512 91.0273C74.1152 90.8691 74.3203 90.79 74.5664 90.79C74.8008 90.79 75.0029 90.8691 75.1729 91.0273C75.3428 91.1855 75.4277 91.4287 75.4277 91.7568C75.4277 92.085 75.3428 92.3311 75.1729 92.4951C75.0029 92.6533 74.8008 92.7324 74.5664 92.7324C74.3203 92.7324 74.1152 92.6533 73.9512 92.4951C73.7871 92.3311 73.7051 92.085 73.7051 91.7568ZM84.9727 104V97.7686C84.9727 96.9834 84.7939 96.3975 84.4365 96.0107C84.0791 95.624 83.5195 95.4307 82.7578 95.4307C81.75 95.4307 81.0117 95.7031 80.543 96.248C80.0742 96.793 79.8398 97.6924 79.8398 98.9463V104H78.3809V94.3672H79.5674L79.8047 95.6855H79.875C80.1738 95.2109 80.5928 94.8447 81.1318 94.5869C81.6709 94.3232 82.2715 94.1914 82.9336 94.1914C84.0938 94.1914 84.9668 94.4727 85.5527 95.0352C86.1387 95.5918 86.4316 96.4854 86.4316 97.7158V104H84.9727ZM97.3213 94.3672V95.29L95.5371 95.501C95.7012 95.7061 95.8477 95.9756 95.9766 96.3096C96.1055 96.6377 96.1699 97.0098 96.1699 97.4258C96.1699 98.3691 95.8477 99.1221 95.2031 99.6846C94.5586 100.247 93.6738 100.528 92.5488 100.528C92.2617 100.528 91.9922 100.505 91.7402 100.458C91.1191 100.786 90.8086 101.199 90.8086 101.697C90.8086 101.961 90.917 102.157 91.1338 102.286C91.3506 102.409 91.7227 102.471 92.25 102.471H93.9551C94.998 102.471 95.7979 102.69 96.3545 103.13C96.917 103.569 97.1982 104.208 97.1982 105.046C97.1982 106.112 96.7705 106.924 95.915 107.48C95.0596 108.043 93.8115 108.324 92.1709 108.324C90.9111 108.324 89.9385 108.09 89.2529 107.621C88.5732 107.152 88.2334 106.49 88.2334 105.635C88.2334 105.049 88.4209 104.542 88.7959 104.114C89.1709 103.687 89.6982 103.396 90.3779 103.244C90.1318 103.133 89.9238 102.96 89.7539 102.726C89.5898 102.491 89.5078 102.219 89.5078 101.908C89.5078 101.557 89.6016 101.249 89.7891 100.985C89.9766 100.722 90.2725 100.467 90.6768 100.221C90.1787 100.016 89.7715 99.667 89.4551 99.1748C89.1445 98.6826 88.9893 98.1201 88.9893 97.4873C88.9893 96.4326 89.3057 95.6211 89.9385 95.0527C90.5713 94.4785 91.4678 94.1914 92.6279 94.1914C93.1318 94.1914 93.5859 94.25 93.9902 94.3672H97.3213ZM89.6396 105.617C89.6396 106.139 89.8594 106.534 90.2988 106.804C90.7383 107.073 91.3682 107.208 92.1885 107.208C93.4131 107.208 94.3184 107.023 94.9043 106.654C95.4961 106.291 95.792 105.796 95.792 105.169C95.792 104.647 95.6309 104.284 95.3086 104.079C94.9863 103.88 94.3799 103.78 93.4893 103.78H91.7402C91.0781 103.78 90.5625 103.938 90.1934 104.255C89.8242 104.571 89.6396 105.025 89.6396 105.617ZM90.4307 97.4521C90.4307 98.126 90.6211 98.6357 91.002 98.9814C91.3828 99.3271 91.9131 99.5 92.5928 99.5C94.0166 99.5 94.7285 98.8086 94.7285 97.4258C94.7285 95.9785 94.0078 95.2549 92.5664 95.2549C91.8809 95.2549 91.3535 95.4395 90.9844 95.8086C90.6152 96.1777 90.4307 96.7256 90.4307 97.4521ZM106.066 93.708C106.066 94.1123 106.172 94.499 106.383 94.8682C106.594 95.2314 106.954 95.6709 107.464 96.1865C108.22 95.7471 108.744 95.3428 109.037 94.9736C109.336 94.5986 109.485 94.168 109.485 93.6816C109.485 93.2305 109.333 92.8643 109.028 92.583C108.729 92.2959 108.328 92.1523 107.824 92.1523C107.303 92.1523 106.878 92.293 106.55 92.5742C106.228 92.8555 106.066 93.2334 106.066 93.708ZM107.429 102.866C108.841 102.866 110.013 102.415 110.944 101.513L107.104 97.7861C106.453 98.1846 105.993 98.5156 105.724 98.7793C105.454 99.0371 105.255 99.3154 105.126 99.6143C104.997 99.9131 104.933 100.253 104.933 100.634C104.933 101.319 105.158 101.864 105.609 102.269C106.066 102.667 106.673 102.866 107.429 102.866ZM103.421 100.669C103.421 99.9072 103.623 99.2334 104.027 98.6475C104.438 98.0615 105.17 97.4697 106.225 96.8721C105.727 96.3154 105.387 95.8936 105.205 95.6064C105.029 95.3193 104.889 95.0205 104.783 94.71C104.678 94.3994 104.625 94.0771 104.625 93.7432C104.625 92.8643 104.912 92.1787 105.486 91.6865C106.061 91.1943 106.86 90.9482 107.886 90.9482C108.835 90.9482 109.582 91.1943 110.127 91.6865C110.672 92.1729 110.944 92.8525 110.944 93.7256C110.944 94.3525 110.745 94.9326 110.347 95.4658C109.948 95.9932 109.289 96.5293 108.369 97.0742L111.946 100.511C112.274 100.147 112.535 99.7227 112.729 99.2363C112.928 98.7441 113.095 98.208 113.229 97.6279H114.706C114.308 99.3037 113.707 100.575 112.904 101.442L115.532 104H113.52L111.894 102.436C111.202 103.057 110.499 103.502 109.784 103.771C109.069 104.041 108.272 104.176 107.394 104.176C106.134 104.176 105.155 103.865 104.458 103.244C103.767 102.623 103.421 101.765 103.421 100.669ZM49.4033 126.972C49.6611 126.972 49.9102 126.954 50.1504 126.919C50.3906 126.878 50.5811 126.837 50.7217 126.796V127.912C50.5635 127.988 50.3291 128.05 50.0186 128.097C49.7139 128.149 49.4385 128.176 49.1924 128.176C47.3291 128.176 46.3975 127.194 46.3975 125.231V119.501H45.0176V118.798L46.3975 118.191L47.0127 116.135H47.8564V118.367H50.6514V119.501H47.8564V125.17C47.8564 125.75 47.9941 126.195 48.2695 126.506C48.5449 126.816 48.9229 126.972 49.4033 126.972ZM60.9697 123.175C60.9697 124.745 60.5742 125.973 59.7832 126.857C58.9922 127.736 57.8994 128.176 56.5049 128.176C55.6436 128.176 54.8789 127.974 54.2109 127.569C53.543 127.165 53.0273 126.585 52.6641 125.829C52.3008 125.073 52.1191 124.188 52.1191 123.175C52.1191 121.604 52.5117 120.383 53.2969 119.51C54.082 118.631 55.1719 118.191 56.5664 118.191C57.9141 118.191 58.9834 118.64 59.7744 119.536C60.5713 120.433 60.9697 121.646 60.9697 123.175ZM53.6309 123.175C53.6309 124.405 53.877 125.343 54.3691 125.987C54.8613 126.632 55.585 126.954 56.54 126.954C57.4951 126.954 58.2188 126.635 58.7109 125.996C59.209 125.352 59.458 124.411 59.458 123.175C59.458 121.95 59.209 121.021 58.7109 120.389C58.2188 119.75 57.4893 119.431 56.5225 119.431C55.5674 119.431 54.8467 119.744 54.3604 120.371C53.874 120.998 53.6309 121.933 53.6309 123.175ZM71.4023 128L69.6357 122.349C69.5244 122.003 69.3164 121.218 69.0117 119.993H68.9414C68.707 121.019 68.502 121.81 68.3262 122.366L66.5068 128H64.8193L62.1914 118.367H63.7207C64.3418 120.787 64.8135 122.63 65.1357 123.896C65.4639 125.161 65.6514 126.014 65.6982 126.453H65.7686C65.833 126.119 65.9355 125.688 66.0762 125.161C66.2227 124.628 66.3486 124.206 66.4541 123.896L68.2207 118.367H69.8027L71.5254 123.896C71.8535 124.903 72.0762 125.75 72.1934 126.436H72.2637C72.2871 126.225 72.3486 125.899 72.4482 125.46C72.5537 125.021 73.166 122.656 74.2852 118.367H75.7969L73.1338 128H71.4023ZM81.6152 128.176C80.1914 128.176 79.0664 127.742 78.2402 126.875C77.4199 126.008 77.0098 124.804 77.0098 123.263C77.0098 121.71 77.3906 120.477 78.1523 119.562C78.9199 118.648 79.9482 118.191 81.2373 118.191C82.4443 118.191 83.3994 118.59 84.1025 119.387C84.8057 120.178 85.1572 121.224 85.1572 122.524V123.447H78.5215C78.5508 124.578 78.835 125.437 79.374 126.022C79.9189 126.608 80.6836 126.901 81.668 126.901C82.7051 126.901 83.7305 126.685 84.7441 126.251V127.552C84.2285 127.774 83.7393 127.933 83.2764 128.026C82.8193 128.126 82.2656 128.176 81.6152 128.176ZM81.2197 119.413C80.4463 119.413 79.8281 119.665 79.3652 120.169C78.9082 120.673 78.6387 121.37 78.5566 122.261H83.5928C83.5928 121.341 83.3877 120.638 82.9775 120.151C82.5674 119.659 81.9814 119.413 81.2197 119.413ZM89.1123 128H87.6533V114.324H89.1123V128ZM98.4199 125.372C98.4199 126.269 98.0859 126.96 97.418 127.446C96.75 127.933 95.8125 128.176 94.6055 128.176C93.3281 128.176 92.332 127.974 91.6172 127.569V126.216C92.0801 126.45 92.5752 126.635 93.1025 126.77C93.6357 126.904 94.1484 126.972 94.6406 126.972C95.4023 126.972 95.9883 126.852 96.3984 126.611C96.8086 126.365 97.0137 125.993 97.0137 125.495C97.0137 125.12 96.8496 124.801 96.5215 124.537C96.1992 124.268 95.5664 123.951 94.623 123.588C93.7266 123.254 93.0879 122.964 92.707 122.718C92.332 122.466 92.0508 122.182 91.8633 121.865C91.6816 121.549 91.5908 121.171 91.5908 120.731C91.5908 119.946 91.9102 119.328 92.5488 118.877C93.1875 118.42 94.0635 118.191 95.1768 118.191C96.2139 118.191 97.2275 118.402 98.2178 118.824L97.6992 120.011C96.7324 119.612 95.8564 119.413 95.0713 119.413C94.3799 119.413 93.8584 119.521 93.5068 119.738C93.1553 119.955 92.9795 120.254 92.9795 120.635C92.9795 120.893 93.0439 121.112 93.1729 121.294C93.3076 121.476 93.5215 121.648 93.8145 121.812C94.1074 121.977 94.6699 122.214 95.502 122.524C96.6445 122.94 97.415 123.359 97.8135 123.781C98.2178 124.203 98.4199 124.733 98.4199 125.372Z" fill="white"/>
<defs>
<clipPath id="clip0_154_230">
<rect width="70" height="70" fill="white" transform="translate(37)"/>
</clipPath>
</defs>
</svg>
