<svg width="144" height="138" viewBox="0 0 144 138" fill="none" xmlns="http://www.w3.org/2000/svg">
<g clip-path="url(#clip0_154_120)">
<path d="M106.999 32.6671C107.001 29.5907 105.652 26.6688 103.309 24.6744C104.202 23.2181 104.672 21.5421 104.666 19.834C104.66 15.1015 101.118 11.1201 96.4179 10.5638C96.4725 10.1562 96.4999 9.74539 96.4996 9.33414C96.5117 4.19111 92.3523 0.0121733 87.2093 6.9341e-05C84.183 -0.00707639 81.3419 1.45692 79.5913 3.92555C76.6205 -0.267093 70.8133 -1.25743 66.6207 1.71344C65.7638 2.32068 65.0158 3.06865 64.4086 3.92555C61.4212 -0.265635 55.602 -1.24154 51.4108 1.74567C48.5999 3.7491 47.1267 7.14215 47.582 10.5638C42.8823 11.1201 39.3399 15.1015 39.3338 19.834C39.3279 21.5421 39.7978 23.2181 40.6906 24.6744C36.277 28.4357 35.7482 35.0629 39.5095 39.4764C39.8711 39.9009 40.2662 40.2959 40.6906 40.6575C39.7973 42.1145 39.3275 43.7913 39.3338 45.5003C39.3396 50.6525 43.5147 54.8276 48.6669 54.8335H55.6668V67.6666H52.1669C51.5226 67.6666 51.0002 68.189 51.0002 68.8333C51.0002 69.4776 51.5226 69.9999 52.1669 69.9999H91.833C92.4773 69.9999 92.9996 69.4776 92.9996 68.8333C92.9996 68.189 92.4773 67.6666 91.833 67.6666H88.333V54.8335H95.3329C100.485 54.8276 104.66 50.6525 104.666 45.5003C104.672 43.7922 104.202 42.1161 103.309 40.6599C105.652 38.6655 107.001 35.7434 106.999 32.6671ZM48.6669 52.4897C44.8066 52.4859 41.6767 49.3606 41.667 45.5003C41.6625 43.9136 42.2033 42.3737 43.1989 41.1382C43.6009 40.6348 43.5188 39.9007 43.0154 39.4985C42.9911 39.4789 42.9658 39.4604 42.9399 39.443C39.1977 36.9254 38.2049 31.8509 40.7224 28.1086C41.3114 27.2332 42.0643 26.4801 42.9399 25.8912C43.4739 25.5309 43.6148 24.8057 43.2543 24.2716C43.2368 24.2457 43.2183 24.2206 43.1989 24.1961C42.2033 22.9606 41.6625 21.4206 41.667 19.834C41.6708 15.9696 44.8026 12.8379 48.6669 12.8341L48.9691 12.8504C49.3464 12.8692 49.7085 12.7002 49.9363 12.3989C50.1681 12.1014 50.2408 11.7097 50.1311 11.3489C49.0382 7.64075 51.1585 3.74866 54.8668 2.6558C58.1633 1.68427 61.6774 3.24963 63.1602 6.34985C63.1602 6.36152 63.1602 6.37319 63.1521 6.38485C63.0067 6.8222 62.8942 7.2699 62.8161 7.72417C62.8021 7.80233 62.7916 7.88166 62.7799 7.9575C62.6403 8.81877 62.6297 9.69595 62.7484 10.5603C58.0474 11.1169 54.5046 15.1 54.5002 19.834C54.4944 21.5421 54.9642 23.2181 55.857 24.6744C55.836 24.6931 55.8185 24.7129 55.7975 24.7316L50.3668 19.3008C49.9033 18.8533 49.1647 18.8661 48.7171 19.3296C48.2805 19.7816 48.2805 20.4984 48.7171 20.9505L54.2144 26.4477C50.9444 30.8813 51.6619 37.089 55.857 40.6599C55.4068 41.3941 55.0627 42.1882 54.835 43.0188L50.6584 38.8422C50.195 38.3945 49.4565 38.4073 49.0088 38.8708C48.5722 39.3229 48.5722 40.0396 49.0088 40.4919L54.5259 46.0089C54.5352 46.1711 54.5375 46.3344 54.555 46.4931C54.5667 46.6028 54.5889 46.7078 54.604 46.8151C54.6344 47.0309 54.6647 47.2456 54.7102 47.4568C54.737 47.5828 54.7744 47.7041 54.8059 47.8278C54.8537 48.0144 54.9015 48.2022 54.961 48.3842C55.003 48.5137 55.0532 48.6374 55.101 48.7646C55.1652 48.9349 55.2294 49.1064 55.304 49.2721C55.36 49.3981 55.4207 49.5206 55.4825 49.6431C55.5618 49.8029 55.6435 49.9604 55.731 50.1097C55.7998 50.2264 55.8733 50.343 55.948 50.4597C56.0413 50.6079 56.137 50.7525 56.2385 50.8937C56.319 51.0104 56.403 51.1189 56.4893 51.2285C56.5955 51.3662 56.7063 51.498 56.8207 51.6287C56.9128 51.7337 57.0062 51.8375 57.1018 51.9379C57.2185 52.0639 57.348 52.184 57.4763 52.303C57.5405 52.3637 57.6 52.4313 57.6665 52.4897H48.6669V52.4897ZM70.8333 67.6666H58.0001V54.8335H70.8333V67.6666ZM71.9999 15.1674C71.3557 15.1674 70.8333 15.6898 70.8333 16.334V24.6009L65.5332 19.3008C65.0698 18.8533 64.3311 18.8661 63.8836 19.3296C63.4469 19.7816 63.4469 20.4984 63.8836 20.9505L70.8333 27.9002V43.8506L65.8249 38.8422C65.3614 38.3945 64.6229 38.4073 64.1752 38.8708C63.7386 39.3229 63.7386 40.0396 64.1752 40.4919L70.8333 47.1499V52.5002H63.8334C59.969 52.4964 56.8373 49.3647 56.8335 45.5003C56.829 43.9136 57.3697 42.3737 58.3653 41.1382C58.7674 40.6348 58.6853 39.9007 58.1819 39.4985C58.1575 39.4789 58.1323 39.4604 58.1063 39.443C54.3641 36.9254 53.3713 31.8509 55.8888 28.1086C56.4778 27.2332 57.2307 26.4801 58.1063 25.8912C58.6403 25.5309 58.7812 24.8057 58.4207 24.2716C58.4032 24.2457 58.3847 24.2206 58.3653 24.1961C57.3697 22.9606 56.829 21.4206 56.8335 19.834C56.8373 15.9696 59.969 12.8379 63.8334 12.8341L64.1356 12.8504C64.5133 12.8714 64.8762 12.702 65.1027 12.3989C65.3346 12.1014 65.4072 11.7097 65.2975 11.3489C65.101 10.6953 65.0006 10.0166 65 9.33414C65.0006 8.9035 65.0418 8.47388 65.1225 8.05083C65.1225 8.03449 65.1225 8.01699 65.1295 8.00066C65.2141 7.5795 65.3363 7.1668 65.4947 6.76751C66.548 4.09486 69.1272 2.33716 71.9999 2.33424C74.8727 2.33716 77.4518 4.09486 78.5052 6.76751C78.664 7.16942 78.7862 7.5849 78.8703 8.00883C78.8703 8.02516 78.8703 8.04266 78.8773 8.05899C78.9577 8.47928 78.9987 8.90627 78.9998 9.33414C78.9993 10.0166 78.8989 10.6953 78.7023 11.3489C78.5927 11.7097 78.6653 12.1014 78.8972 12.3989C79.1245 12.7008 79.4869 12.87 79.8643 12.8504L80.1665 12.8341C84.0309 12.8379 87.1626 15.9696 87.1664 19.834C87.1709 21.4206 86.6302 22.9606 85.6346 24.1961C85.2325 24.6995 85.3146 25.4336 85.818 25.8358C85.8424 25.8554 85.8676 25.8739 85.8936 25.8912C89.6357 28.4089 90.6286 33.4834 88.1109 37.2257C87.5219 38.1011 86.769 38.8542 85.8936 39.443C85.3595 39.8034 85.2187 40.5286 85.5792 41.0626C85.5967 41.0886 85.6152 41.1137 85.6346 41.1382C86.6302 42.3737 87.1709 43.9136 87.1664 45.5003C87.1626 49.3647 84.0309 52.4964 80.1665 52.5002H73.1666V36.5696C73.2537 36.5266 73.3349 36.4725 73.4081 36.4086L80.9913 28.8254C81.439 28.3619 81.4262 27.6234 80.9627 27.1757C80.5107 26.7391 79.7939 26.7391 79.3417 27.1757L73.1666 33.3508V16.334C73.1666 15.6896 72.6442 15.1674 71.9999 15.1674ZM85.9997 67.6666H73.1666V54.8335H85.9997V67.6666ZM100.745 41.0626C100.763 41.0886 100.781 41.1137 100.801 41.1382C101.796 42.3737 102.337 43.9136 102.333 45.5003C102.329 49.3647 99.1972 52.4964 95.3328 52.5002H86.3334C86.3999 52.4418 86.4594 52.3742 86.5236 52.3135C86.6519 52.1969 86.7767 52.0744 86.8981 51.9484C86.9937 51.848 87.0871 51.7442 87.1792 51.6392C87.2959 51.5085 87.4044 51.3767 87.5105 51.239C87.5969 51.1294 87.6809 51.0185 87.7614 50.9042C87.8629 50.763 87.9585 50.6184 88.0519 50.4702C88.1265 50.3535 88.2 50.2369 88.2689 50.1202C88.3564 49.9662 88.438 49.8087 88.5174 49.6536C88.578 49.5311 88.634 49.4086 88.6959 49.2826C88.7705 49.1169 88.8347 48.9454 88.8989 48.7751C88.9467 48.6479 88.9969 48.5242 89.0389 48.3947C89.0984 48.2127 89.1462 48.0249 89.194 47.8382C89.2255 47.7146 89.2629 47.5933 89.2897 47.4673C89.3352 47.2561 89.3655 47.0414 89.3959 46.8256C89.411 46.7183 89.4332 46.6133 89.4449 46.5036C89.4812 46.1704 89.4995 45.8354 89.4997 45.5003C89.5055 43.7922 89.0357 42.1161 88.1429 40.6599C90.3448 38.7791 91.6704 36.0708 91.805 33.1781L96.1578 28.8254C96.6055 28.3619 96.5926 27.6234 96.1292 27.1757C95.6771 26.7391 94.9603 26.7391 94.5081 27.1757L91.5203 30.1635C90.998 28.0266 89.8163 26.1082 88.1429 24.6803C89.0367 23.2224 89.5065 21.5442 89.4997 19.834C89.4936 15.1015 85.9512 11.1201 81.2515 10.5638C81.369 9.6993 81.3572 8.82198 81.2165 7.961C81.2048 7.88166 81.1943 7.80233 81.1803 7.72767C81.1021 7.2734 80.9897 6.8257 80.8443 6.38835C80.8443 6.37669 80.8443 6.36502 80.8361 6.35335C82.5043 2.8658 86.6837 1.39086 90.1712 3.05902C93.2715 4.54184 94.8367 8.05608 93.8653 11.3524C93.7556 11.7132 93.8282 12.1049 94.0601 12.4024C94.2879 12.7037 94.65 12.8727 95.0273 12.8539L95.3329 12.8341C99.1973 12.8379 102.329 15.9696 102.333 19.834C102.337 21.4206 101.797 22.9606 100.801 24.1961C100.399 24.6995 100.481 25.4336 100.984 25.8358C101.009 25.8554 101.034 25.8739 101.06 25.8912C104.802 28.4089 105.795 33.4834 103.277 37.2257C102.688 38.1011 101.935 38.8542 101.06 39.443C100.526 39.8034 100.385 40.5286 100.745 41.0626Z" fill="white"/>
</g>
<path d="M19.8284 96.1504H23.4583C25.1633 96.1504 26.3967 96.4053 27.1584 96.915C27.9202 97.4248 28.301 98.2305 28.301 99.332C28.301 100.094 28.0872 100.724 27.6594 101.222C27.2375 101.714 26.6194 102.033 25.8049 102.18V102.268C27.7561 102.602 28.7317 103.627 28.7317 105.344C28.7317 106.492 28.342 107.389 27.5627 108.033C26.7893 108.678 25.7053 109 24.3108 109H19.8284V96.1504ZM21.3225 101.652H23.7834C24.8381 101.652 25.5969 101.488 26.0598 101.16C26.5227 100.826 26.7542 100.267 26.7542 99.4814C26.7542 98.7607 26.4963 98.2422 25.9807 97.9258C25.4651 97.6035 24.6448 97.4424 23.5198 97.4424H21.3225V101.652ZM21.3225 102.918V107.726H24.0032C25.0403 107.726 25.8196 107.526 26.3411 107.128C26.8684 106.724 27.1321 106.094 27.1321 105.238C27.1321 104.441 26.8625 103.855 26.3235 103.48C25.7903 103.105 24.9758 102.918 23.8801 102.918H21.3225ZM35.675 99.1914C36.1028 99.1914 36.4866 99.2266 36.8264 99.2969L36.6243 100.65C36.2258 100.562 35.8743 100.519 35.5696 100.519C34.7903 100.519 34.1223 100.835 33.5657 101.468C33.0149 102.101 32.7395 102.889 32.7395 103.832V109H31.2805V99.3672H32.4846L32.6516 101.151H32.7219C33.0793 100.524 33.51 100.041 34.0139 99.7012C34.5178 99.3613 35.0715 99.1914 35.675 99.1914ZM42.6975 109.176C41.2737 109.176 40.1487 108.742 39.3225 107.875C38.5022 107.008 38.092 105.804 38.092 104.263C38.092 102.71 38.4729 101.477 39.2346 100.562C40.0022 99.6484 41.0305 99.1914 42.3196 99.1914C43.5266 99.1914 44.4817 99.5898 45.1848 100.387C45.8879 101.178 46.2395 102.224 46.2395 103.524V104.447H39.6038C39.6331 105.578 39.9172 106.437 40.4563 107.022C41.0012 107.608 41.7659 107.901 42.7502 107.901C43.7874 107.901 44.8127 107.685 45.8264 107.251V108.552C45.3108 108.774 44.8215 108.933 44.3586 109.026C43.9016 109.126 43.3479 109.176 42.6975 109.176ZM42.302 100.413C41.5286 100.413 40.9104 100.665 40.4475 101.169C39.9905 101.673 39.7209 102.37 39.6389 103.261H44.675C44.675 102.341 44.47 101.638 44.0598 101.151C43.6497 100.659 43.0637 100.413 42.302 100.413ZM54.6594 109L54.3694 107.629H54.2991C53.8186 108.232 53.3381 108.643 52.8577 108.859C52.3831 109.07 51.7883 109.176 51.0735 109.176C50.1184 109.176 49.3684 108.93 48.8235 108.438C48.2844 107.945 48.0149 107.245 48.0149 106.337C48.0149 104.392 49.5706 103.372 52.6819 103.278L54.3167 103.226V102.628C54.3167 101.872 54.1526 101.315 53.8245 100.958C53.5022 100.595 52.9836 100.413 52.2688 100.413C51.4661 100.413 50.5579 100.659 49.5442 101.151L49.0959 100.035C49.5706 99.7773 50.0891 99.5752 50.6516 99.4287C51.22 99.2822 51.7883 99.209 52.3567 99.209C53.5051 99.209 54.3547 99.4639 54.9055 99.9736C55.4622 100.483 55.7405 101.301 55.7405 102.426V109H54.6594ZM51.3635 107.972C52.2717 107.972 52.9836 107.723 53.4993 107.225C54.0208 106.727 54.2815 106.029 54.2815 105.133V104.263L52.8225 104.324C51.6624 104.365 50.8245 104.547 50.3088 104.869C49.7991 105.186 49.5442 105.681 49.5442 106.354C49.5442 106.882 49.7024 107.283 50.0188 107.559C50.3411 107.834 50.7893 107.972 51.3635 107.972ZM61.8665 107.972C62.1243 107.972 62.3733 107.954 62.6135 107.919C62.8538 107.878 63.0442 107.837 63.1848 107.796V108.912C63.0266 108.988 62.7922 109.05 62.4817 109.097C62.177 109.149 61.9016 109.176 61.6555 109.176C59.7922 109.176 58.8606 108.194 58.8606 106.231V100.501H57.4807V99.7979L58.8606 99.1914L59.4758 97.1348H60.3196V99.3672H63.1145V100.501H60.3196V106.17C60.3196 106.75 60.4573 107.195 60.7327 107.506C61.0081 107.816 61.386 107.972 61.8665 107.972ZM71.7102 109V102.769C71.7102 101.983 71.5315 101.397 71.1741 101.011C70.8167 100.624 70.2571 100.431 69.4954 100.431C68.4817 100.431 67.7405 100.706 67.2717 101.257C66.8088 101.808 66.5774 102.71 66.5774 103.964V109H65.1184V95.3242H66.5774V99.4639C66.5774 99.9619 66.554 100.375 66.5071 100.703H66.595C66.8821 100.24 67.2893 99.877 67.8167 99.6133C68.3499 99.3438 68.9563 99.209 69.636 99.209C70.8137 99.209 71.6956 99.4902 72.2815 100.053C72.8733 100.609 73.1692 101.497 73.1692 102.716V109H71.7102ZM79.2864 107.972C79.5442 107.972 79.7932 107.954 80.0334 107.919C80.2737 107.878 80.4641 107.837 80.6047 107.796V108.912C80.4465 108.988 80.2122 109.05 79.9016 109.097C79.5969 109.149 79.3215 109.176 79.0754 109.176C77.2122 109.176 76.2805 108.194 76.2805 106.231V100.501H74.9006V99.7979L76.2805 99.1914L76.8958 97.1348H77.7395V99.3672H80.5344V100.501H77.7395V106.17C77.7395 106.75 77.8772 107.195 78.1526 107.506C78.428 107.816 78.8059 107.972 79.2864 107.972ZM88.4622 109L88.1721 107.629H88.1018C87.6213 108.232 87.1409 108.643 86.6604 108.859C86.1858 109.07 85.5911 109.176 84.8762 109.176C83.9211 109.176 83.1711 108.93 82.6262 108.438C82.0872 107.945 81.8176 107.245 81.8176 106.337C81.8176 104.392 83.3733 103.372 86.4846 103.278L88.1194 103.226V102.628C88.1194 101.872 87.9553 101.315 87.6272 100.958C87.3049 100.595 86.7864 100.413 86.0715 100.413C85.2688 100.413 84.3606 100.659 83.3469 101.151L82.8987 100.035C83.3733 99.7773 83.8918 99.5752 84.4543 99.4287C85.0227 99.2822 85.5911 99.209 86.1594 99.209C87.3079 99.209 88.1575 99.4639 88.7083 99.9736C89.2649 100.483 89.5432 101.301 89.5432 102.426V109H88.4622ZM85.1663 107.972C86.0745 107.972 86.7864 107.723 87.302 107.225C87.8235 106.727 88.0842 106.029 88.0842 105.133V104.263L86.6252 104.324C85.4651 104.365 84.6272 104.547 84.1116 104.869C83.6018 105.186 83.3469 105.681 83.3469 106.354C83.3469 106.882 83.5051 107.283 83.8215 107.559C84.1438 107.834 84.592 107.972 85.1663 107.972ZM93.9993 104.069C94.2512 103.712 94.635 103.243 95.1506 102.663L98.262 99.3672H99.9934L96.0911 103.472L100.266 109H98.4993L95.0979 104.447L93.9993 105.396V109H92.5579V95.3242H93.9993V102.575C93.9993 102.897 93.9758 103.396 93.929 104.069H93.9993ZM103.474 109H102.015V99.3672H103.474V109ZM101.892 96.7568C101.892 96.4229 101.974 96.1797 102.138 96.0273C102.302 95.8691 102.507 95.79 102.753 95.79C102.988 95.79 103.19 95.8691 103.36 96.0273C103.53 96.1855 103.615 96.4287 103.615 96.7568C103.615 97.085 103.53 97.3311 103.36 97.4951C103.19 97.6533 102.988 97.7324 102.753 97.7324C102.507 97.7324 102.302 97.6533 102.138 97.4951C101.974 97.3311 101.892 97.085 101.892 96.7568ZM113.159 109V102.769C113.159 101.983 112.981 101.397 112.623 101.011C112.266 100.624 111.706 100.431 110.945 100.431C109.937 100.431 109.198 100.703 108.73 101.248C108.261 101.793 108.027 102.692 108.027 103.946V109H106.568V99.3672H107.754L107.991 100.686H108.062C108.361 100.211 108.78 99.8447 109.319 99.5869C109.858 99.3232 110.458 99.1914 111.12 99.1914C112.281 99.1914 113.154 99.4727 113.74 100.035C114.325 100.592 114.618 101.485 114.618 102.716V109H113.159ZM125.508 99.3672V100.29L123.724 100.501C123.888 100.706 124.034 100.976 124.163 101.31C124.292 101.638 124.357 102.01 124.357 102.426C124.357 103.369 124.034 104.122 123.39 104.685C122.745 105.247 121.861 105.528 120.736 105.528C120.448 105.528 120.179 105.505 119.927 105.458C119.306 105.786 118.995 106.199 118.995 106.697C118.995 106.961 119.104 107.157 119.321 107.286C119.537 107.409 119.909 107.471 120.437 107.471H122.142C123.185 107.471 123.985 107.69 124.541 108.13C125.104 108.569 125.385 109.208 125.385 110.046C125.385 111.112 124.957 111.924 124.102 112.48C123.246 113.043 121.998 113.324 120.358 113.324C119.098 113.324 118.125 113.09 117.44 112.621C116.76 112.152 116.42 111.49 116.42 110.635C116.42 110.049 116.608 109.542 116.983 109.114C117.358 108.687 117.885 108.396 118.565 108.244C118.319 108.133 118.111 107.96 117.941 107.726C117.777 107.491 117.695 107.219 117.695 106.908C117.695 106.557 117.788 106.249 117.976 105.985C118.163 105.722 118.459 105.467 118.864 105.221C118.365 105.016 117.958 104.667 117.642 104.175C117.331 103.683 117.176 103.12 117.176 102.487C117.176 101.433 117.492 100.621 118.125 100.053C118.758 99.4785 119.655 99.1914 120.815 99.1914C121.319 99.1914 121.773 99.25 122.177 99.3672H125.508ZM117.826 110.617C117.826 111.139 118.046 111.534 118.486 111.804C118.925 112.073 119.555 112.208 120.375 112.208C121.6 112.208 122.505 112.023 123.091 111.654C123.683 111.291 123.979 110.796 123.979 110.169C123.979 109.647 123.818 109.284 123.495 109.079C123.173 108.88 122.567 108.78 121.676 108.78H119.927C119.265 108.78 118.749 108.938 118.38 109.255C118.011 109.571 117.826 110.025 117.826 110.617ZM118.617 102.452C118.617 103.126 118.808 103.636 119.189 103.981C119.57 104.327 120.1 104.5 120.78 104.5C122.203 104.5 122.915 103.809 122.915 102.426C122.915 100.979 122.195 100.255 120.753 100.255C120.068 100.255 119.54 100.439 119.171 100.809C118.802 101.178 118.617 101.726 118.617 102.452ZM52.5149 133L48.8586 123.367H50.4231L52.4973 129.08C52.9661 130.416 53.2415 131.283 53.3235 131.682H53.3938C53.4583 131.371 53.6604 130.729 54.0002 129.757C54.3459 128.778 55.1165 126.648 56.3118 123.367H57.8762L54.22 133H52.5149ZM60.8821 133H59.4231V123.367H60.8821V133ZM59.3 120.757C59.3 120.423 59.3821 120.18 59.5461 120.027C59.7102 119.869 59.9153 119.79 60.1614 119.79C60.3958 119.79 60.5979 119.869 60.7678 120.027C60.9377 120.186 61.0227 120.429 61.0227 120.757C61.0227 121.085 60.9377 121.331 60.7678 121.495C60.5979 121.653 60.3958 121.732 60.1614 121.732C59.9153 121.732 59.7102 121.653 59.5461 121.495C59.3821 121.331 59.3 121.085 59.3 120.757ZM68.0452 133.176C66.6213 133.176 65.4963 132.742 64.6702 131.875C63.8499 131.008 63.4397 129.804 63.4397 128.263C63.4397 126.71 63.8206 125.477 64.5823 124.562C65.3499 123.648 66.3782 123.191 67.6672 123.191C68.8743 123.191 69.8293 123.59 70.5325 124.387C71.2356 125.178 71.5872 126.224 71.5872 127.524V128.447H64.9514C64.9807 129.578 65.2649 130.437 65.804 131.022C66.3489 131.608 67.1135 131.901 68.0979 131.901C69.135 131.901 70.1604 131.685 71.1741 131.251V132.552C70.6584 132.774 70.1692 132.933 69.7063 133.026C69.2493 133.126 68.6956 133.176 68.0452 133.176ZM67.6497 124.413C66.8762 124.413 66.2581 124.665 65.7952 125.169C65.3381 125.673 65.0686 126.37 64.9866 127.261H70.0227C70.0227 126.341 69.8176 125.638 69.4075 125.151C68.9973 124.659 68.4114 124.413 67.6497 124.413ZM81.9495 133L80.1829 127.349C80.0715 127.003 79.8635 126.218 79.5588 124.993H79.4885C79.2542 126.019 79.0491 126.81 78.8733 127.366L77.054 133H75.3665L72.7385 123.367H74.2678C74.8889 125.787 75.3606 127.63 75.6829 128.896C76.011 130.161 76.1985 131.014 76.2454 131.453H76.3157C76.3801 131.119 76.4827 130.688 76.6233 130.161C76.7698 129.628 76.8958 129.206 77.0012 128.896L78.7678 123.367H80.3499L82.0725 128.896C82.4006 129.903 82.6233 130.75 82.7405 131.436H82.8108C82.8342 131.225 82.8958 130.899 82.9954 130.46C83.1008 130.021 83.7131 127.656 84.8323 123.367H86.344L83.6809 133H81.9495ZM94.3069 130.372C94.3069 131.269 93.9729 131.96 93.3049 132.446C92.637 132.933 91.6995 133.176 90.4924 133.176C89.2151 133.176 88.219 132.974 87.5042 132.569V131.216C87.967 131.45 88.4622 131.635 88.9895 131.77C89.5227 131.904 90.0354 131.972 90.5276 131.972C91.2893 131.972 91.8752 131.852 92.2854 131.611C92.6956 131.365 92.9006 130.993 92.9006 130.495C92.9006 130.12 92.7366 129.801 92.4084 129.537C92.0862 129.268 91.4534 128.951 90.51 128.588C89.6135 128.254 88.9749 127.964 88.594 127.718C88.219 127.466 87.9377 127.182 87.7502 126.865C87.5686 126.549 87.4778 126.171 87.4778 125.731C87.4778 124.946 87.7971 124.328 88.4358 123.877C89.0745 123.42 89.9504 123.191 91.0637 123.191C92.1008 123.191 93.1145 123.402 94.1047 123.824L93.5862 125.011C92.6194 124.612 91.7434 124.413 90.9583 124.413C90.2668 124.413 89.7454 124.521 89.3938 124.738C89.0422 124.955 88.8665 125.254 88.8665 125.635C88.8665 125.893 88.9309 126.112 89.0598 126.294C89.1946 126.476 89.4084 126.648 89.7014 126.812C89.9944 126.977 90.5569 127.214 91.3889 127.524C92.5315 127.94 93.302 128.359 93.7004 128.781C94.1047 129.203 94.3069 129.733 94.3069 130.372Z" fill="white"/>
<defs>
<clipPath id="clip0_154_120">
<rect width="70" height="70" fill="white" transform="translate(37.0002)"/>
</clipPath>
</defs>
</svg>
