<svg width="144" height="105" viewBox="0 0 144 105" fill="none" xmlns="http://www.w3.org/2000/svg">
<path d="M69.5654 87.1504L66.1289 100H64.626L62.0771 91.3516C62.001 91.1055 61.9277 90.8594 61.8574 90.6133C61.793 90.3613 61.7314 90.124 61.6729 89.9014C61.6143 89.6729 61.5645 89.4736 61.5234 89.3037C61.4883 89.1279 61.4619 88.9961 61.4443 88.9082C61.4326 88.9961 61.4092 89.125 61.374 89.2949C61.3447 89.4648 61.3037 89.6611 61.251 89.8838C61.2041 90.1064 61.1455 90.3438 61.0752 90.5957C61.0107 90.8477 60.9404 91.1025 60.8643 91.3604L58.3857 100H56.8828L53.4727 87.1504H55.0283L57.0938 95.21C57.1641 95.4795 57.2285 95.7461 57.2871 96.0098C57.3516 96.2676 57.4072 96.5195 57.4541 96.7656C57.5068 97.0117 57.5537 97.252 57.5947 97.4863C57.6357 97.7207 57.6738 97.9492 57.709 98.1719C57.7383 97.9434 57.7764 97.7061 57.8232 97.46C57.8701 97.208 57.9199 96.9531 57.9727 96.6953C58.0312 96.4375 58.0928 96.1768 58.1572 95.9131C58.2275 95.6494 58.3008 95.3857 58.377 95.1221L60.6885 87.1504H62.2266L64.6348 95.1836C64.7168 95.459 64.793 95.7314 64.8633 96.001C64.9336 96.2705 64.9951 96.5342 65.0479 96.792C65.1064 97.0439 65.1562 97.2871 65.1973 97.5215C65.2441 97.75 65.2852 97.9668 65.3203 98.1719C65.3613 97.8848 65.4111 97.583 65.4697 97.2666C65.5283 96.9502 65.5957 96.6191 65.6719 96.2734C65.7539 95.9277 65.8418 95.5703 65.9355 95.2012L68.001 87.1504H69.5654ZM72.835 90.3672V100H71.376V90.3672H72.835ZM72.123 86.7637C72.3633 86.7637 72.5684 86.8428 72.7383 87.001C72.9141 87.1533 73.002 87.3936 73.002 87.7217C73.002 88.0439 72.9141 88.2842 72.7383 88.4424C72.5684 88.6006 72.3633 88.6797 72.123 88.6797C71.8711 88.6797 71.6602 88.6006 71.4902 88.4424C71.3262 88.2842 71.2441 88.0439 71.2441 87.7217C71.2441 87.3936 71.3262 87.1533 71.4902 87.001C71.6602 86.8428 71.8711 86.7637 72.123 86.7637ZM75.1113 95.8164V94.5156H79.4707V95.8164H75.1113ZM86.0186 91.5098H83.6191V100H82.1602V91.5098H80.4551V90.8066L82.1602 90.3232V89.6816C82.1602 88.873 82.2803 88.2168 82.5205 87.7129C82.7607 87.2031 83.1094 86.8281 83.5664 86.5879C84.0234 86.3477 84.5801 86.2275 85.2363 86.2275C85.6055 86.2275 85.9424 86.2598 86.2471 86.3242C86.5576 86.3887 86.8301 86.4619 87.0645 86.5439L86.6865 87.6953C86.4873 87.6309 86.2617 87.5723 86.0098 87.5195C85.7637 87.4609 85.5117 87.4316 85.2539 87.4316C84.6973 87.4316 84.2842 87.6133 84.0146 87.9766C83.751 88.334 83.6191 88.8965 83.6191 89.6641V90.3672H86.0186V91.5098ZM89.2441 90.3672V100H87.7852V90.3672H89.2441ZM88.5322 86.7637C88.7725 86.7637 88.9775 86.8428 89.1475 87.001C89.3232 87.1533 89.4111 87.3936 89.4111 87.7217C89.4111 88.0439 89.3232 88.2842 89.1475 88.4424C88.9775 88.6006 88.7725 88.6797 88.5322 88.6797C88.2803 88.6797 88.0693 88.6006 87.8994 88.4424C87.7354 88.2842 87.6533 88.0439 87.6533 87.7217C87.6533 87.3936 87.7354 87.1533 87.8994 87.001C88.0693 86.8428 88.2803 86.7637 88.5322 86.7637Z" fill="white"/>
<g clip-path="url(#clip0_154_156)">
<path d="M84.5595 40.981C80.931 37.4863 76.1397 35.5615 71.0685 35.5615C65.9963 35.5615 61.2044 37.4868 57.5759 40.9826C56.9065 41.6274 56.2793 42.3242 55.7116 43.053C54.3824 44.761 54.5413 47.2118 56.0803 48.7588C56.0829 48.7614 56.0856 48.7641 56.0883 48.7668C56.9054 49.5839 57.9906 50.0339 59.1432 50.0339C60.497 50.0339 61.7566 49.4196 62.5989 48.3478C62.8627 48.0118 63.1511 47.6869 63.4556 47.383C65.4842 45.3544 68.1875 44.2371 71.0685 44.2371C73.9489 44.2371 76.6528 45.3544 78.6814 47.3825C78.9848 47.6864 79.2732 48.0112 79.5381 48.3478C80.3803 49.4191 81.6394 50.0339 82.9932 50.0339H82.9938C84.1464 50.0339 85.2316 49.5839 86.0482 48.7668C86.0514 48.7641 86.054 48.7614 86.0567 48.7588C87.5957 47.2118 87.7546 44.761 86.4249 43.053C85.8571 42.3236 85.2294 41.6269 84.5595 40.981V40.981ZM84.5959 47.3134C84.5937 47.3156 84.5916 47.3177 84.59 47.3199C84.1614 47.7453 83.5947 47.9796 82.9932 47.9796C82.2741 47.9796 81.6036 47.6511 81.153 47.078C80.8379 46.6772 80.4949 46.2909 80.1337 45.9302C77.7177 43.5131 74.498 42.1829 71.0685 42.1829C67.6385 42.1829 64.4193 43.5137 62.0028 45.9302C61.6405 46.2925 61.2981 46.6783 60.9834 47.0785C60.5334 47.6511 59.8629 47.9796 59.1432 47.9796C58.5417 47.9796 57.9756 47.7453 57.547 47.3199C57.5448 47.3183 57.5427 47.3161 57.5411 47.314C56.7261 46.499 56.6368 45.21 57.3329 44.3153C57.8408 43.6635 58.4021 43.0401 59.0014 42.4622C62.2452 39.3372 66.5308 37.6163 71.0685 37.6163C75.6056 37.6163 79.8907 39.3367 83.134 42.4611C83.7338 43.039 84.2957 43.663 84.8035 44.3153C85.5002 45.21 85.4108 46.499 84.5959 47.3134Z" fill="white"/>
<path d="M71.0686 48.8066C69.4157 48.8066 67.8612 49.4504 66.6925 50.619C65.5239 51.7877 64.8801 53.3416 64.8801 54.9946C64.8801 56.6475 65.5239 58.202 66.6925 59.3706C67.8612 60.5393 69.4157 61.183 71.0686 61.183C72.7215 61.183 74.2755 60.5393 75.4441 59.3706C77.8569 56.9579 77.8569 53.0318 75.4441 50.619C74.2755 49.4504 72.7215 48.8066 71.0686 48.8066V48.8066ZM73.9913 57.9178C73.2106 58.6986 72.1725 59.1288 71.0686 59.1288C69.9641 59.1288 68.926 58.6986 68.1453 57.9178C67.3646 57.1371 66.9344 56.099 66.9344 54.9951C66.9344 53.8907 67.3646 52.8526 68.1453 52.0718C68.926 51.2911 69.9641 50.8609 71.0686 50.8609C72.1725 50.8609 73.2106 51.2911 73.9913 52.0718C75.603 53.6836 75.603 56.3061 73.9913 57.9178Z" fill="white"/>
<path d="M105.003 23.9674C104.543 23.4649 104.063 22.9635 103.578 22.4777C96.8915 15.7942 88.4786 11.3796 79.2481 9.7117C70.2257 8.08178 61.03 9.15948 52.6551 12.8297C52.1355 13.0577 51.8984 13.6634 52.1264 14.183C52.3544 14.7026 52.9601 14.9397 53.4797 14.7117C70.1305 7.41504 89.2251 11.0339 102.125 23.931C102.589 24.3955 103.048 24.8744 103.487 25.3544C104.31 26.2528 104.273 27.6366 103.405 28.505C102.957 28.9524 102.361 29.1932 101.729 29.1771C101.105 29.1632 100.53 28.9037 100.111 28.4451C99.7163 28.0144 99.3064 27.5857 98.8922 27.1716C91.4773 19.7567 81.5966 15.6738 71.0685 15.6738C71.068 15.6738 71.0664 15.6738 71.0658 15.6738C60.5366 15.6744 50.6549 19.7593 43.241 27.1753C42.8268 27.59 42.418 28.017 42.0263 28.4451C41.6068 28.9037 41.0321 29.1638 40.4076 29.1771C39.7719 29.1921 39.1801 28.9524 38.7322 28.505C37.8638 27.6366 37.8274 26.2528 38.6493 25.3549C39.0875 24.876 39.5451 24.3981 40.0085 23.9347C43.0131 20.9296 46.4056 18.3863 50.0903 16.3753C50.5885 16.1035 50.7721 15.4796 50.5002 14.9814C50.2284 14.4838 49.6045 14.2997 49.1063 14.572C45.2487 16.6766 41.6988 19.3382 38.5551 22.4819C38.0709 22.9667 37.5925 23.4665 37.1339 23.9674C35.5676 25.6786 35.6313 28.3097 37.2794 29.9579C38.104 30.7819 39.1919 31.2325 40.3536 31.2325C40.3862 31.2325 40.42 31.2319 40.4531 31.2314C41.6437 31.2052 42.7407 30.7081 43.5423 29.8321C43.9136 29.426 44.3011 29.0209 44.6938 28.6281C51.7197 21.6001 61.0856 17.7292 71.0658 17.7286H71.0685C81.0471 17.7286 90.413 21.5979 97.4394 28.6244C97.8322 29.0171 98.2212 29.4238 98.5947 29.8321C99.3963 30.7081 100.493 31.2052 101.684 31.2314C102.87 31.2571 104.022 30.7931 104.858 29.9579C106.505 28.3097 106.569 25.6786 105.003 23.9674V23.9674Z" fill="white"/>
<path d="M93.6284 31.3011C88.0617 25.9951 80.7522 22.8203 73.0457 22.3612C72.4785 22.328 71.9926 22.7593 71.9589 23.3254C71.9252 23.8921 72.357 24.3785 72.9237 24.4122C80.146 24.8424 86.9953 27.8165 92.2109 32.7882C92.8712 33.418 93.5096 34.0821 94.1079 34.7622C94.9057 35.6692 94.8634 37.0465 94.0115 37.8984C93.5604 38.349 92.9627 38.586 92.3244 38.5657C91.6822 38.5448 91.0936 38.2671 90.6677 37.7823C90.1989 37.2493 89.7013 36.7281 89.1892 36.2326C84.3192 31.5264 77.8841 28.9349 71.069 28.9344H71.0685C64.2539 28.9344 57.8188 31.5259 52.9488 36.2316C52.4351 36.7276 51.9375 37.2493 51.4687 37.7823C51.0428 38.2671 50.4547 38.5448 49.812 38.5657C49.1753 38.5871 48.576 38.349 48.1249 37.8979C47.2741 37.0471 47.2259 35.6756 48.0157 34.7766C48.4154 34.3212 48.8344 33.8718 49.2614 33.4405C54.5654 28.0755 61.6517 24.8697 69.2149 24.4138C69.781 24.3796 70.2123 23.8926 70.1786 23.3265C70.1444 22.7604 69.6579 22.3275 69.0913 22.3628C61.0219 22.8492 53.4609 26.2706 47.8006 31.9957C47.3458 32.4559 46.8989 32.9353 46.4719 33.4207C44.9694 35.1314 45.0577 37.7363 46.6721 39.3507C47.4951 40.1731 48.577 40.621 49.7339 40.621C49.7821 40.621 49.8302 40.6205 49.8784 40.6189C51.0765 40.5803 52.2189 40.041 53.012 39.1388C53.4438 38.647 53.9029 38.166 54.3765 37.709C63.5813 28.815 78.5578 28.8156 87.7615 37.7101C88.234 38.1665 88.6926 38.647 89.125 39.1388C89.918 40.041 91.0604 40.5803 92.2585 40.6189C93.4705 40.6579 94.6076 40.2074 95.4643 39.3507C97.0804 37.7347 97.1617 35.1228 95.6506 33.4046C95.0127 32.6801 94.3326 31.9721 93.6284 31.3011V31.3011Z" fill="white"/>
</g>
<defs>
<clipPath id="clip0_154_156">
<rect width="70.1368" height="70" fill="white" transform="translate(36)"/>
</clipPath>
</defs>
</svg>
